{"glyphs":{"0":{"ha":826,"x_min":45,"x_max":782,"o":"m 45 511 q 143 897 45 755 q 414 1039 241 1039 q 684 897 585 1039 q 782 511 782 754 q 684 124 782 267 q 414 -18 585 -18 q 143 124 241 -18 q 45 511 45 267 m 253 511 q 293 255 253 347 q 414 163 332 163 q 534 255 494 163 q 574 511 574 348 q 534 766 574 674 q 414 859 494 859 q 293 766 332 859 q 253 511 253 674 z "},"1":{"ha":551,"x_min":14,"x_max":452,"o":"m 14 806 l 446 1039 l 452 1039 l 452 0 l 248 0 l 248 697 l 97 618 l 14 806 z "},"2":{"ha":741,"x_min":29,"x_max":703,"o":"m 29 747 q 357 1039 85 1039 q 602 949 509 1039 q 694 717 694 859 q 667 570 694 637 q 582 425 639 503 l 404 183 l 703 183 l 703 0 l 46 0 l 46 8 l 410 529 q 470 632 454 593 q 486 722 486 672 q 451 820 486 784 q 357 856 415 856 q 262 819 297 856 q 215 704 228 781 l 29 747 z "},"3":{"ha":728,"x_min":26,"x_max":707,"o":"m 26 268 l 211 313 q 264 202 227 239 q 367 165 302 165 q 465 203 428 165 q 501 304 501 241 q 461 403 501 365 q 359 441 422 441 l 253 441 l 253 604 l 361 604 q 447 639 412 606 q 482 729 482 672 q 447 821 482 787 q 358 856 412 856 q 273 824 307 856 q 224 730 239 792 l 46 806 q 161 977 81 916 q 359 1039 241 1039 q 596 951 505 1039 q 686 729 686 863 q 568 522 686 589 q 670 436 633 492 q 707 300 707 379 q 614 70 707 159 q 368 -18 522 -18 q 26 268 91 -18 z "},"4":{"ha":804,"x_min":-3,"x_max":772,"o":"m -3 150 l -3 155 l 652 1035 l 657 1035 l 657 306 l 772 306 l 772 150 l 657 150 l 657 0 l 453 0 l 453 150 l -3 150 m 286 301 l 468 301 l 468 549 l 286 301 z "},"5":{"ha":760,"x_min":45,"x_max":728,"o":"m 45 211 l 218 294 q 272 198 232 231 q 372 165 311 165 q 479 208 437 165 q 521 319 521 251 q 479 430 521 388 q 371 472 438 472 q 233 421 290 472 l 94 484 l 94 1021 l 667 1021 l 667 838 l 300 838 l 300 628 q 389 646 341 646 q 522 625 460 646 q 629 564 583 604 q 702 458 675 524 q 728 310 728 393 q 635 73 728 165 q 386 -18 542 -18 q 170 39 256 -18 q 45 211 83 96 z "},"6":{"ha":780,"x_min":39,"x_max":742,"o":"m 39 325 q 107 533 39 441 l 412 1021 l 643 1021 l 421 668 q 650 560 558 656 q 742 325 742 465 q 694 148 742 227 q 566 25 646 68 q 389 -18 485 -18 q 213 25 293 -18 q 86 148 134 68 q 39 325 39 227 m 248 325 q 287 208 248 252 q 389 163 327 163 q 492 208 451 163 q 533 325 533 252 q 492 443 533 397 q 389 489 451 489 q 288 444 328 489 q 248 325 248 398 z "},"7":{"ha":761,"x_min":33,"x_max":757,"o":"m 33 835 l 33 1021 l 757 1021 l 757 1013 l 265 0 l 45 0 l 454 835 l 33 835 z "},"8":{"ha":780,"x_min":37,"x_max":741,"o":"m 37 301 q 75 437 37 375 q 179 538 113 500 q 74 749 74 614 q 165 957 74 874 q 387 1039 256 1039 q 545 1002 473 1039 q 660 899 617 966 q 703 749 703 831 q 595 539 703 618 q 701 437 662 500 q 741 301 741 374 q 692 135 741 209 q 564 22 644 62 q 387 -18 484 -18 q 212 22 292 -18 q 85 135 132 62 q 37 301 37 209 m 245 298 q 286 197 245 237 q 387 157 326 157 q 490 197 449 157 q 532 298 532 237 q 490 401 532 361 q 387 441 449 441 q 286 401 326 441 q 245 298 245 361 m 262 739 q 298 646 262 683 q 387 610 334 610 q 476 647 439 610 q 513 739 513 684 q 476 829 513 793 q 387 865 439 865 q 298 829 334 865 q 262 739 262 793 z "},"9":{"ha":780,"x_min":39,"x_max":742,"o":"m 39 696 q 86 873 39 794 q 215 996 134 952 q 392 1039 296 1039 q 567 996 488 1039 q 694 873 647 952 q 742 696 742 794 q 672 488 742 581 l 368 0 l 138 0 l 359 353 q 131 459 223 363 q 39 696 39 556 m 289 813 q 268 791 289 813 q 248 696 248 768 q 289 577 248 623 q 392 532 330 532 q 493 577 453 532 q 533 696 533 623 q 493 813 533 768 q 392 859 453 859 q 289 813 330 859 z "}," ":{"ha":315,"x_min":0,"x_max":0,"o":""},"!":{"ha":408,"x_min":85,"x_max":325,"o":"m 85 102 q 118 187 85 153 q 204 221 152 221 q 291 187 256 221 q 325 102 325 153 q 291 16 325 50 q 204 -18 256 -18 q 119 16 153 -18 q 85 102 85 50 m 102 314 l 102 1021 l 306 1021 l 306 314 l 102 314 z "},"\"":{"ha":522,"x_min":69,"x_max":515,"o":"m 69 1048 l 256 1015 l 167 632 l 90 632 l 69 1048 m 329 1048 l 515 1015 l 427 632 l 350 632 l 329 1048 z "},"#":{"ha":981,"x_min":1,"x_max":957,"o":"m 1 245 l 1 411 l 176 411 l 212 607 l 66 607 l 66 771 l 239 771 l 283 1021 l 488 1021 l 443 771 l 608 771 l 653 1021 l 859 1021 l 812 771 l 957 771 l 957 607 l 785 607 l 749 411 l 892 411 l 892 245 l 721 245 l 677 0 l 473 0 l 517 245 l 351 245 l 310 0 l 103 0 l 149 245 l 1 245 m 380 411 l 546 411 l 581 607 l 414 607 l 380 411 z "},"$":{"ha":827,"x_min":18,"x_max":800,"o":"m 18 118 l 134 294 q 263 208 184 241 q 421 175 342 175 q 545 204 502 175 q 589 290 589 234 q 546 363 589 336 q 392 412 503 391 q 228 464 295 433 q 121 534 160 494 q 66 621 83 574 q 49 725 49 667 q 128 933 49 848 q 343 1035 208 1017 l 343 1207 l 511 1207 l 511 1032 q 765 932 665 1008 l 656 757 q 407 846 545 846 q 299 818 338 846 q 261 734 261 790 q 301 665 261 690 q 453 618 341 640 q 660 548 583 591 q 769 448 737 505 q 800 310 800 391 q 724 98 800 183 q 511 -9 647 14 l 511 -179 l 343 -179 l 343 -14 q 18 118 145 5 z "},"%":{"ha":1250,"x_min":33,"x_max":1217,"o":"m 107 591 q 70 627 107 591 q 33 777 33 664 q 107 963 33 889 q 293 1038 180 1038 q 477 963 404 1038 q 550 777 550 889 q 477 591 550 665 q 293 518 404 518 q 107 591 180 518 m 187 777 q 217 695 187 727 q 293 663 247 663 q 368 695 338 663 q 397 777 397 728 q 368 860 397 827 q 293 893 338 893 q 217 860 246 893 q 187 777 187 827 m 200 0 l 857 1021 l 1051 1021 l 395 0 l 200 0 m 773 55 q 736 91 773 55 q 700 240 700 127 q 773 427 700 353 q 958 501 846 501 q 1143 427 1069 501 q 1217 240 1217 352 q 1143 55 1217 128 q 958 -18 1069 -18 q 773 55 846 -18 m 852 240 q 882 158 852 191 q 958 126 911 126 q 1034 159 1003 126 q 1064 240 1064 191 q 1034 323 1064 290 q 958 357 1003 357 q 882 324 911 357 q 852 240 852 291 z "},"&":{"ha":985,"x_min":33,"x_max":996,"o":"m 33 272 q 46 363 33 323 q 87 438 59 404 q 150 500 115 473 q 237 561 184 527 q 155 676 184 621 q 126 796 126 732 q 203 971 126 903 q 407 1039 280 1039 q 611 971 534 1039 q 688 798 688 904 q 674 716 688 752 q 628 646 661 680 q 577 599 595 613 q 510 553 558 585 q 503 547 505 549 l 654 378 l 754 509 l 987 509 l 786 233 l 996 0 l 736 0 l 657 89 q 370 -14 534 -14 q 204 19 279 -14 q 81 118 128 52 q 33 272 33 184 m 241 289 q 280 197 241 231 q 382 163 319 163 q 533 229 465 163 l 346 443 q 267 372 292 406 q 241 289 241 338 m 318 786 q 337 725 318 753 q 395 660 356 697 q 475 721 451 695 q 498 787 498 747 q 474 850 498 827 q 410 873 450 873 q 343 850 369 873 q 318 786 318 827 z "},"'":{"ha":261,"x_min":69,"x_max":256,"o":"m 69 1048 l 256 1015 l 167 632 l 90 632 l 69 1048 z "},"(":{"ha":447,"x_min":58,"x_max":424,"o":"m 71 245 q 65 283 71 245 q 58 401 58 321 q 71 558 58 482 q 103 692 83 633 q 152 807 123 750 q 208 904 180 864 q 268 986 235 944 l 424 878 q 358 787 385 829 q 305 687 332 745 q 264 556 278 628 q 250 401 250 485 q 264 247 250 318 q 305 116 278 175 q 358 15 332 58 q 424 -75 385 -27 l 268 -183 q 208 -101 235 -141 q 152 -4 180 -61 q 103 111 123 53 q 71 245 83 170 z "},")":{"ha":447,"x_min":24,"x_max":389,"o":"m 24 -75 q 90 15 62 -28 q 144 116 117 58 q 184 246 170 174 q 197 401 197 318 q 184 556 197 485 q 144 686 170 628 q 90 787 117 745 q 24 878 62 830 l 179 986 q 239 904 212 944 q 295 807 267 864 q 344 692 324 750 q 376 558 363 633 q 389 401 389 482 q 376 245 389 321 q 344 111 363 170 q 295 -4 324 53 q 239 -101 267 -61 q 179 -183 212 -141 l 24 -75 z "},"*":{"ha":600,"x_min":35,"x_max":567,"o":"m 35 777 l 79 911 l 239 848 l 229 1019 l 372 1019 l 363 848 l 522 911 l 567 777 l 400 732 l 507 602 l 393 518 l 301 652 l 208 518 l 94 602 l 201 732 l 35 777 z "},"+":{"ha":711,"x_min":50,"x_max":661,"o":"m 50 393 l 50 579 l 261 579 l 261 791 l 447 791 l 447 579 l 661 579 l 661 393 l 447 393 l 447 179 l 261 179 l 261 393 l 50 393 z "},",":{"ha":293,"x_min":65,"x_max":240,"o":"m 65 -215 l 65 225 q 114 235 95 235 q 204 198 169 235 q 240 109 240 162 q 215 31 240 69 l 71 -215 l 65 -215 z "},"-":{"ha":598,"x_min":52,"x_max":546,"o":"m 52 265 l 52 453 l 546 453 l 546 265 l 52 265 z "},".":{"ha":353,"x_min":50,"x_max":302,"o":"m 50 113 q 86 202 50 167 q 176 237 121 237 q 267 202 231 237 q 302 113 302 168 q 267 22 302 58 q 176 -14 231 -14 q 85 22 121 -14 q 50 113 50 57 z "},"/":{"ha":725,"x_min":7,"x_max":718,"o":"m 7 0 l 513 1021 l 718 1021 l 214 0 l 7 0 z "},":":{"ha":337,"x_min":50,"x_max":288,"o":"m 50 104 q 84 190 50 156 q 170 224 118 224 q 254 190 220 224 q 288 104 288 156 q 254 20 288 54 q 170 -14 220 -14 q 84 20 118 -14 q 50 104 50 54 m 50 599 q 84 685 50 651 q 170 718 118 718 q 254 684 220 718 q 288 599 288 650 q 254 514 288 548 q 170 481 220 481 q 84 514 118 481 q 50 599 50 548 z "},";":{"ha":337,"x_min":50,"x_max":288,"o":"m 50 599 q 84 685 50 651 q 170 718 118 718 q 254 684 220 718 q 288 599 288 650 q 254 514 288 548 q 170 481 220 481 q 84 514 118 481 q 50 599 50 548 m 82 214 q 131 224 106 224 q 221 188 186 224 q 257 97 257 151 q 231 20 257 60 l 87 -225 l 82 -225 l 82 214 z "},"<":{"ha":534,"x_min":24,"x_max":511,"o":"m 24 478 l 24 484 l 258 747 l 511 747 l 271 481 l 511 214 l 258 214 l 24 478 z "},"=":{"ha":711,"x_min":50,"x_max":661,"o":"m 50 207 l 50 393 l 661 393 l 661 207 l 50 207 m 50 574 l 50 761 l 661 761 l 661 574 l 50 574 z "},">":{"ha":534,"x_min":24,"x_max":511,"o":"m 24 214 l 264 481 l 24 747 l 277 747 l 511 484 l 511 478 l 277 214 l 24 214 z "},"?":{"ha":729,"x_min":25,"x_max":685,"o":"m 25 772 q 136 969 52 900 q 355 1039 220 1039 q 593 955 500 1039 q 685 747 685 871 q 672 658 685 698 q 639 592 659 618 q 594 544 619 566 q 545 503 570 522 q 500 463 520 484 q 467 414 480 443 q 454 350 454 385 l 454 314 l 250 314 l 250 378 q 262 461 250 424 q 294 524 275 499 q 337 571 314 549 q 385 610 361 592 q 428 647 408 628 q 460 690 448 665 q 472 745 472 715 q 438 826 472 797 q 353 856 404 856 q 267 824 300 856 q 227 739 234 792 l 25 772 m 233 102 q 267 187 233 153 q 353 221 301 221 q 439 187 405 221 q 473 102 473 153 q 439 16 473 50 q 353 -18 405 -18 q 267 16 301 -18 q 233 102 233 50 z "},"@":{"ha":1219,"x_min":37,"x_max":1182,"o":"m 37 335 q 80 561 37 456 q 197 740 123 665 q 378 857 272 814 q 608 900 485 900 q 841 859 734 900 q 1023 747 948 819 q 1140 572 1098 675 q 1182 347 1182 469 q 1114 118 1182 205 q 928 31 1046 31 q 819 56 864 31 q 755 118 774 81 l 753 123 q 672 57 722 84 q 562 31 622 31 q 375 116 448 31 q 302 334 302 201 q 375 552 302 467 q 562 637 448 637 q 734 562 679 637 l 743 627 l 897 627 l 897 216 q 950 157 897 157 q 1023 208 997 157 q 1048 347 1048 259 q 929 657 1048 538 q 608 777 810 777 q 380 720 480 777 q 225 562 280 663 q 171 335 171 462 q 224 107 171 208 q 375 -48 278 7 q 597 -104 473 -104 q 777 -71 692 -104 l 810 -187 q 597 -228 711 -228 q 373 -186 477 -228 q 195 -70 269 -144 q 79 109 121 5 q 37 335 37 214 m 475 334 q 511 220 475 262 q 606 178 547 178 q 726 249 677 178 l 726 419 q 606 490 678 490 q 511 448 547 490 q 475 334 475 406 z "},"A":{"ha":1005,"x_min":7,"x_max":999,"o":"m 7 0 l 500 1039 l 505 1039 l 999 0 l 765 0 l 699 158 l 307 158 l 240 0 l 7 0 m 374 323 l 632 323 l 503 629 l 374 323 z "},"B":{"ha":939,"x_min":102,"x_max":903,"o":"m 102 0 l 102 1021 l 496 1021 q 733 947 648 1021 q 819 745 819 874 q 791 625 819 675 q 721 547 762 574 q 903 297 903 485 q 807 79 903 159 q 564 0 711 0 l 102 0 m 313 193 l 538 193 q 648 224 608 193 q 688 314 688 256 q 647 405 688 373 q 532 436 606 436 l 313 436 l 313 193 m 313 604 l 473 604 q 570 635 534 604 q 607 717 607 666 q 570 799 607 769 q 468 828 533 828 l 313 828 l 313 604 z "},"C":{"ha":947,"x_min":41,"x_max":936,"o":"m 41 511 q 108 781 41 661 q 294 970 174 901 q 566 1039 414 1039 q 772 1002 684 1039 q 935 886 859 964 l 802 732 q 566 846 705 846 q 341 752 427 846 q 256 511 256 659 q 341 270 256 364 q 566 175 427 175 q 804 292 707 175 l 936 138 q 770 19 861 56 q 566 -18 680 -18 q 294 51 414 -18 q 108 241 174 120 q 41 511 41 361 z "},"D":{"ha":1025,"x_min":102,"x_max":985,"o":"m 102 0 l 102 1021 l 427 1021 q 837 886 689 1021 q 985 511 985 752 q 838 135 985 270 q 427 0 690 0 l 102 0 m 314 193 l 419 193 q 680 276 591 193 q 770 510 770 358 q 680 744 770 662 q 419 827 590 827 l 314 827 l 314 193 z "},"E":{"ha":822,"x_min":102,"x_max":772,"o":"m 102 0 l 102 1021 l 761 1021 l 761 828 l 314 828 l 314 607 l 701 607 l 701 428 l 314 428 l 314 193 l 772 193 l 772 0 l 102 0 z "},"F":{"ha":770,"x_min":102,"x_max":741,"o":"m 102 0 l 102 1021 l 741 1021 l 741 828 l 314 828 l 314 593 l 668 593 l 668 412 l 314 412 l 314 0 l 102 0 z "},"G":{"ha":1040,"x_min":41,"x_max":960,"o":"m 41 511 q 108 781 41 661 q 294 970 174 901 q 566 1039 414 1039 q 772 1002 684 1039 q 935 886 859 964 l 802 732 q 566 846 705 846 q 341 752 427 846 q 256 511 256 659 q 345 269 256 363 q 579 175 434 175 q 749 227 669 175 l 749 392 l 528 392 l 528 574 l 960 574 l 960 122 q 579 -18 811 -18 q 301 51 424 -18 q 110 241 178 120 q 41 511 41 361 z "},"H":{"ha":1042,"x_min":102,"x_max":939,"o":"m 102 0 l 102 1021 l 314 1021 l 314 619 l 728 619 l 728 1021 l 939 1021 l 939 0 l 728 0 l 728 427 l 314 427 l 314 0 l 102 0 z "},"I":{"ha":415,"x_min":102,"x_max":314,"o":"m 102 0 l 102 1021 l 314 1021 l 314 0 l 102 0 z "},"J":{"ha":789,"x_min":24,"x_max":701,"o":"m 24 343 l 229 343 q 262 218 229 262 q 359 175 296 175 q 455 213 420 175 q 490 317 490 252 l 490 1021 l 701 1021 l 701 306 q 608 72 701 161 q 367 -18 515 -18 q 237 5 298 -18 q 128 73 176 28 q 52 186 80 117 q 24 343 24 256 z "},"K":{"ha":980,"x_min":102,"x_max":971,"o":"m 102 0 l 102 1021 l 314 1021 l 314 425 l 653 1021 l 901 1021 l 600 530 l 971 0 l 717 0 l 481 342 l 262 0 l 102 0 z "},"L":{"ha":758,"x_min":102,"x_max":749,"o":"m 102 0 l 102 1021 l 314 1021 l 314 186 l 749 186 l 749 0 l 102 0 z "},"M":{"ha":1233,"x_min":102,"x_max":1131,"o":"m 102 0 l 102 1039 l 107 1039 l 616 319 l 1125 1039 l 1131 1039 l 1131 0 l 920 0 l 920 429 l 623 -14 l 611 -14 l 314 429 l 314 0 l 102 0 z "},"N":{"ha":1023,"x_min":102,"x_max":922,"o":"m 102 0 l 102 1039 l 107 1039 l 710 452 l 710 1021 l 922 1021 l 922 -18 l 917 -18 l 314 570 l 314 0 l 102 0 z "},"O":{"ha":1131,"x_min":41,"x_max":1090,"o":"m 41 509 q 109 781 41 660 q 297 971 177 903 q 566 1039 417 1039 q 833 971 713 1039 q 1022 781 954 903 q 1090 509 1090 660 q 1022 238 1090 359 q 833 50 954 117 q 566 -18 713 -18 q 297 50 417 -18 q 109 238 177 117 q 41 509 41 359 m 256 509 q 342 269 256 362 q 566 175 429 175 q 788 269 702 175 q 875 509 875 362 q 788 751 875 656 q 566 846 702 846 q 342 751 429 846 q 256 509 256 656 z "},"P":{"ha":903,"x_min":102,"x_max":868,"o":"m 102 0 l 102 1021 l 510 1021 q 689 982 609 1021 q 819 866 769 944 q 868 684 868 788 q 819 501 868 578 q 690 385 770 423 q 510 346 610 346 l 314 346 l 314 0 l 102 0 m 314 529 l 489 529 q 610 569 565 529 q 654 684 654 608 q 609 797 654 757 q 489 838 564 838 l 314 838 l 314 529 z "},"Q":{"ha":1131,"x_min":41,"x_max":1171,"o":"m 41 509 q 109 781 41 660 q 297 971 177 903 q 566 1039 417 1039 q 833 971 713 1039 q 1022 781 954 903 q 1090 509 1090 660 q 1055 309 1090 402 q 954 146 1019 216 l 1171 -104 l 916 -104 l 798 31 q 566 -18 687 -18 q 297 50 417 -18 q 109 238 177 117 q 41 509 41 359 m 256 509 q 342 269 256 362 q 566 175 429 175 q 660 189 616 175 l 525 345 l 673 469 l 817 304 q 875 509 875 395 q 788 751 875 656 q 566 846 702 846 q 342 751 429 846 q 256 509 256 656 z "},"R":{"ha":922,"x_min":102,"x_max":914,"o":"m 102 0 l 102 1021 l 501 1021 q 641 998 575 1021 q 756 935 706 976 q 835 830 806 894 q 864 690 864 767 q 813 511 864 587 q 676 396 762 435 l 914 0 l 667 0 l 453 359 l 313 359 l 313 0 l 102 0 m 313 543 l 482 543 q 604 582 559 543 q 648 690 648 620 q 603 799 648 760 q 482 838 558 838 l 313 838 l 313 543 z "},"S":{"ha":836,"x_min":22,"x_max":804,"o":"m 22 118 l 138 294 q 268 208 189 241 q 425 175 347 175 q 549 204 506 175 q 593 290 593 234 q 550 363 593 336 q 396 412 507 391 q 232 464 299 433 q 125 534 164 494 q 70 621 87 574 q 53 725 53 667 q 151 951 53 864 q 412 1039 250 1039 q 612 1010 519 1039 q 770 932 705 982 l 660 757 q 411 846 549 846 q 303 818 342 846 q 265 734 265 790 q 305 665 265 690 q 457 618 345 640 q 664 548 587 591 q 773 448 741 505 q 804 310 804 391 q 700 72 804 161 q 418 -18 596 -18 q 200 17 302 -18 q 22 118 99 52 z "},"T":{"ha":919,"x_min":24,"x_max":897,"o":"m 24 835 l 24 1021 l 897 1021 l 897 835 l 566 835 l 566 0 l 354 0 l 354 835 l 24 835 z "},"U":{"ha":964,"x_min":89,"x_max":875,"o":"m 89 367 l 89 1021 l 301 1021 l 301 380 q 348 231 301 286 q 482 175 394 175 q 617 231 570 175 q 664 380 664 286 l 664 1021 l 875 1021 l 875 367 q 773 85 875 189 q 482 -18 671 -18 q 191 85 293 -18 q 89 367 89 189 z "},"V":{"ha":1000,"x_min":9,"x_max":991,"o":"m 9 1021 l 243 1021 l 500 421 l 758 1021 l 991 1021 l 503 -16 l 497 -16 l 9 1021 z "},"W":{"ha":1336,"x_min":9,"x_max":1326,"o":"m 9 1021 l 243 1021 l 441 473 l 665 1021 l 671 1021 l 895 473 l 1093 1021 l 1326 1021 l 911 -16 l 905 -16 l 668 545 l 431 -16 l 425 -16 l 9 1021 z "},"X":{"ha":968,"x_min":16,"x_max":953,"o":"m 16 0 l 335 518 l 29 1021 l 273 1021 l 484 673 l 694 1021 l 939 1021 l 633 518 l 953 0 l 710 0 l 484 364 l 258 0 l 16 0 z "},"Y":{"ha":966,"x_min":5,"x_max":961,"o":"m 5 1021 l 252 1021 l 484 627 l 715 1021 l 961 1021 l 590 418 l 590 0 l 379 0 l 379 414 l 5 1021 z "},"Z":{"ha":825,"x_min":26,"x_max":791,"o":"m 26 0 l 26 5 l 456 836 l 47 836 l 47 1021 l 777 1021 l 777 1015 l 349 184 l 791 184 l 791 0 l 26 0 z "},"[":{"ha":462,"x_min":77,"x_max":428,"o":"m 77 -168 l 77 971 l 428 971 l 428 810 l 269 810 l 269 -7 l 428 -7 l 428 -168 l 77 -168 z "},"\\":{"ha":725,"x_min":7,"x_max":718,"o":"m 7 1021 l 212 1021 l 718 0 l 511 0 l 7 1021 z "},"]":{"ha":467,"x_min":35,"x_max":390,"o":"m 35 -7 l 196 -7 l 196 810 l 35 810 l 35 971 l 390 971 l 390 -168 l 35 -168 l 35 -7 z "},"^":{"ha":732,"x_min":24,"x_max":708,"o":"m 24 642 l 366 1055 l 708 642 l 528 642 l 366 838 l 204 642 l 24 642 z "},"_":{"ha":1103,"x_min":52,"x_max":1051,"o":"m 52 0 l 1051 0 l 1051 -186 l 52 -186 l 52 0 z "},"`":{"ha":464,"x_min":28,"x_max":443,"o":"m 28 997 l 257 997 l 443 796 l 267 796 l 28 997 z "},"a":{"ha":844,"x_min":37,"x_max":751,"o":"m 37 351 q 125 614 37 511 q 351 718 212 718 q 475 693 423 718 q 557 625 528 667 l 568 704 l 751 704 l 751 0 l 568 0 l 557 78 q 475 12 528 37 q 351 -14 423 -14 q 187 34 259 -14 q 76 164 115 81 q 37 351 37 247 m 243 351 q 287 215 243 266 q 401 164 331 164 q 546 252 493 164 l 546 452 q 401 541 492 541 q 287 489 331 541 q 243 351 243 437 z "},"b":{"ha":844,"x_min":93,"x_max":807,"o":"m 93 0 l 93 1055 l 297 1055 l 297 640 q 493 718 367 718 q 720 614 632 718 q 807 351 807 511 q 768 164 807 247 q 657 34 729 81 q 493 -14 585 -14 q 369 12 421 -14 q 286 78 317 37 l 277 0 l 93 0 m 297 252 q 443 164 350 164 q 557 215 513 164 q 602 351 602 266 q 557 489 602 437 q 443 541 513 541 q 297 452 351 541 l 297 252 z "},"c":{"ha":707,"x_min":37,"x_max":693,"o":"m 140 90 q 89 141 140 90 q 37 351 37 193 q 140 614 37 510 q 401 718 242 718 q 692 557 591 718 l 546 449 q 403 542 498 542 q 285 488 327 542 q 243 351 243 434 q 286 216 243 270 q 404 163 328 163 q 550 256 500 163 l 693 146 q 403 -14 591 -14 q 140 90 242 -14 z "},"d":{"ha":844,"x_min":37,"x_max":751,"o":"m 37 351 q 125 614 37 511 q 351 718 212 718 q 546 640 479 718 l 546 1055 l 751 1055 l 751 0 l 568 0 l 557 78 q 475 12 528 37 q 351 -14 423 -14 q 187 34 259 -14 q 76 164 115 81 q 37 351 37 247 m 243 351 q 287 215 243 266 q 401 164 331 164 q 546 252 493 164 l 546 452 q 401 541 492 541 q 287 489 331 541 q 243 351 243 437 z "},"e":{"ha":762,"x_min":37,"x_max":720,"o":"m 37 350 q 137 614 37 509 q 392 718 236 718 q 536 690 473 718 q 639 612 600 661 q 699 498 679 562 q 720 361 720 435 l 720 296 l 243 296 q 287 191 246 227 q 404 154 328 154 q 494 174 454 154 q 558 227 534 194 l 699 113 q 570 17 642 48 q 400 -14 498 -14 q 137 88 236 -14 q 37 350 37 190 m 243 425 l 518 425 q 481 525 516 487 q 385 564 446 564 q 284 525 323 564 q 243 425 246 487 z "},"f":{"ha":537,"x_min":22,"x_max":587,"o":"m 22 532 l 22 704 l 144 704 l 144 765 q 221 975 144 894 q 425 1055 297 1055 q 587 1011 526 1055 l 515 848 q 436 878 486 878 q 372 850 395 878 q 349 777 349 823 l 349 704 l 507 704 l 507 532 l 349 532 l 349 0 l 144 0 l 144 532 l 22 532 z "},"g":{"ha":846,"x_min":24,"x_max":751,"o":"m 24 -182 l 157 -49 q 251 -127 201 -99 q 367 -155 300 -155 q 498 -105 450 -155 q 547 25 546 -55 l 547 79 q 351 1 480 1 q 125 102 213 1 q 37 359 37 203 q 125 617 37 515 q 351 718 213 718 q 476 692 424 718 q 558 625 529 667 l 568 704 l 751 704 l 751 29 q 648 -236 751 -138 q 370 -334 544 -334 q 172 -294 255 -334 q 24 -182 89 -255 m 288 491 q 266 467 288 491 q 244 359 244 442 q 288 228 244 277 q 401 179 331 179 q 547 268 493 179 l 547 452 q 401 541 493 541 q 288 491 331 541 z "},"h":{"ha":827,"x_min":93,"x_max":750,"o":"m 93 0 l 93 1055 l 297 1055 l 297 642 q 486 718 368 718 q 681 634 612 718 q 750 406 750 551 l 750 0 l 546 0 l 546 395 q 515 490 546 454 q 431 526 484 526 q 297 443 349 526 l 297 0 l 93 0 z "},"i":{"ha":391,"x_min":77,"x_max":315,"o":"m 110 841 q 93 858 110 841 q 77 926 77 875 q 110 1012 77 978 q 196 1046 144 1046 q 282 1012 248 1046 q 315 926 315 978 q 282 841 315 875 q 196 807 248 807 q 110 841 144 807 m 93 0 l 93 704 l 297 704 l 297 0 l 93 0 z "},"j":{"ha":391,"x_min":-249,"x_max":315,"o":"m -249 -233 l -117 -97 q -7 -155 -67 -155 q 66 -128 39 -155 q 93 -54 93 -101 l 93 704 l 297 704 l 297 -39 q 212 -250 297 -165 q -3 -334 127 -334 q -249 -233 -153 -334 m 110 841 q 93 858 110 841 q 77 926 77 875 q 110 1012 77 978 q 196 1046 144 1046 q 282 1012 248 1046 q 315 926 315 978 q 282 841 315 875 q 196 807 248 807 q 110 841 144 807 z "},"k":{"ha":802,"x_min":93,"x_max":798,"o":"m 93 0 l 93 1055 l 297 1055 l 297 342 l 533 704 l 778 704 l 562 414 l 798 0 l 566 0 l 428 237 l 254 0 l 93 0 z "},"l":{"ha":391,"x_min":93,"x_max":297,"o":"m 93 0 l 93 1055 l 297 1055 l 297 0 l 93 0 z "},"m":{"ha":1259,"x_min":93,"x_max":1182,"o":"m 93 0 l 93 704 l 277 704 l 286 627 q 366 693 315 667 q 486 718 416 718 q 697 597 632 718 q 929 718 785 718 q 1116 634 1050 718 q 1182 406 1182 551 l 1182 0 l 977 0 l 977 395 q 948 490 977 454 q 869 526 920 526 q 739 443 793 526 l 739 0 l 534 0 l 534 395 q 507 490 534 454 q 428 526 479 526 q 297 443 354 526 l 297 0 l 93 0 z "},"n":{"ha":827,"x_min":93,"x_max":750,"o":"m 93 0 l 93 704 l 277 704 l 286 627 q 366 693 314 668 q 486 718 417 718 q 681 634 612 718 q 750 406 750 551 l 750 0 l 546 0 l 546 395 q 515 490 546 454 q 431 526 484 526 q 297 443 349 526 l 297 0 l 93 0 z "},"o":{"ha":817,"x_min":37,"x_max":779,"o":"m 37 350 q 85 538 37 454 q 217 670 132 623 q 407 718 302 718 q 673 613 567 718 q 779 350 779 508 q 731 163 779 246 q 598 33 683 79 q 407 -14 513 -14 q 142 89 247 -14 q 37 350 37 192 m 243 350 q 290 217 243 270 q 407 164 336 164 q 526 217 479 164 q 572 350 572 269 q 525 486 572 431 q 407 541 478 541 q 290 486 336 541 q 243 350 243 431 z "},"p":{"ha":844,"x_min":93,"x_max":807,"o":"m 93 -319 l 93 704 l 277 704 l 286 625 q 369 693 317 667 q 493 718 421 718 q 720 614 632 718 q 807 351 807 511 q 768 164 807 247 q 657 34 729 81 q 493 -14 585 -14 q 297 64 366 -14 l 297 -319 l 93 -319 m 297 253 q 443 164 350 164 q 557 215 513 164 q 602 351 602 266 q 557 489 602 437 q 443 541 513 541 q 297 452 351 541 l 297 253 z "},"q":{"ha":844,"x_min":37,"x_max":751,"o":"m 37 351 q 125 614 37 511 q 351 718 212 718 q 475 693 423 718 q 557 625 528 667 l 568 704 l 751 704 l 751 -319 l 546 -319 l 546 64 q 351 -14 479 -14 q 187 34 259 -14 q 76 164 115 81 q 37 351 37 247 m 243 351 q 287 215 243 266 q 401 164 331 164 q 546 253 493 164 l 546 452 q 401 541 492 541 q 287 489 331 541 q 243 351 243 437 z "},"r":{"ha":511,"x_min":93,"x_max":490,"o":"m 93 0 l 93 704 l 275 704 l 288 611 q 369 688 316 658 q 490 718 421 718 l 490 515 l 473 515 q 297 422 369 515 l 297 0 l 93 0 z "},"s":{"ha":654,"x_min":36,"x_max":612,"o":"m 36 71 l 114 216 q 307 146 197 146 q 407 205 407 146 q 382 251 407 234 q 288 285 357 269 q 115 360 170 313 q 61 488 61 407 q 140 656 61 593 q 357 718 218 718 q 495 697 429 718 q 602 642 561 677 l 525 497 q 357 557 450 557 q 265 501 265 557 q 291 460 265 475 q 392 428 316 446 q 558 350 504 401 q 612 220 612 299 q 530 50 612 114 q 306 -14 448 -14 q 153 9 226 -14 q 36 71 81 32 z "},"t":{"ha":589,"x_min":14,"x_max":583,"o":"m 14 532 l 14 704 l 140 704 l 140 937 l 345 937 l 345 704 l 546 704 l 546 532 l 345 532 l 345 265 q 371 195 345 220 q 441 170 397 170 q 532 191 494 170 l 583 29 q 422 -14 512 -14 q 216 59 292 -14 q 140 262 140 131 l 140 532 l 14 532 z "},"u":{"ha":822,"x_min":78,"x_max":729,"o":"m 78 296 l 78 704 l 282 704 l 282 307 q 311 213 282 248 q 390 178 339 178 q 525 261 471 178 l 525 704 l 729 704 l 729 0 l 546 0 l 536 77 q 332 -14 471 -14 q 143 69 209 -14 q 78 296 78 151 z "},"v":{"ha":798,"x_min":9,"x_max":787,"o":"m 9 704 l 239 704 l 400 361 l 559 704 l 787 704 l 403 -14 l 397 -14 l 9 704 z "},"w":{"ha":1075,"x_min":9,"x_max":1065,"o":"m 9 704 l 239 704 l 370 371 l 534 704 l 541 704 l 705 371 l 836 704 l 1065 704 l 728 -14 l 722 -14 l 538 334 l 353 -14 l 347 -14 l 9 704 z "},"x":{"ha":739,"x_min":1,"x_max":730,"o":"m 1 0 l 227 355 l 11 704 l 249 704 l 366 498 l 485 704 l 721 704 l 507 355 l 730 0 l 490 0 l 366 208 l 241 0 l 1 0 z "},"y":{"ha":804,"x_min":11,"x_max":791,"o":"m 11 -319 l 292 176 l 14 704 l 241 704 l 401 359 l 562 704 l 791 704 l 244 -319 l 11 -319 z "},"z":{"ha":665,"x_min":31,"x_max":632,"o":"m 31 0 l 31 5 l 322 532 l 49 532 l 49 704 l 632 704 l 632 699 l 340 172 l 631 172 l 631 0 l 31 0 z "},"{":{"ha":473,"x_min":28,"x_max":439,"o":"m 28 399 l 28 404 q 126 460 90 418 q 142 561 163 502 l 131 612 q 161 872 73 773 q 439 971 248 971 l 439 810 q 334 767 369 810 q 319 650 299 724 l 330 596 q 330 471 355 524 q 257 401 305 418 q 330 332 305 385 q 330 207 355 279 l 319 153 q 334 36 299 79 q 439 -7 369 -7 l 439 -168 q 161 -69 248 -168 q 131 191 73 30 l 142 241 q 126 342 163 300 q 28 399 90 385 z "},"|":{"ha":349,"x_min":78,"x_max":271,"o":"m 78 -168 l 78 971 l 271 971 l 271 -168 l 78 -168 z "},"}":{"ha":473,"x_min":35,"x_max":447,"o":"m 35 -7 q 140 36 106 -7 q 154 153 174 79 l 143 207 q 143 332 119 279 q 216 401 168 385 q 143 471 168 418 q 143 596 119 524 l 154 650 q 140 767 174 724 q 35 810 106 810 l 35 971 q 244 926 160 971 q 355 801 328 881 q 345 612 381 722 l 332 561 q 347 460 311 502 q 447 404 384 418 l 447 399 q 347 342 384 385 q 332 241 311 300 l 345 191 q 355 2 381 81 q 244 -123 328 -78 q 35 -168 160 -168 l 35 -7 z "},"~":{"ha":837,"x_min":28,"x_max":811,"o":"m 28 446 q 131 587 64 536 q 279 637 197 637 q 354 626 319 637 q 414 598 389 614 q 463 565 439 581 q 510 536 486 548 q 559 525 535 525 q 642 552 608 525 q 694 624 676 580 l 811 529 q 708 388 774 439 q 559 336 642 336 q 484 348 518 336 q 427 377 450 360 q 383 410 404 393 q 336 438 362 427 q 279 450 309 450 q 197 423 231 450 q 144 351 163 395 l 28 446 z "}," ":{"ha":315,"x_min":0,"x_max":0,"o":""},"¡":{"ha":408,"x_min":83,"x_max":323,"o":"m 118 512 q 101 529 118 512 q 83 597 83 546 q 118 683 83 649 q 204 717 152 717 q 290 683 256 717 q 323 597 323 650 q 290 512 323 545 q 204 478 256 478 q 118 512 152 478 m 103 -322 l 103 385 l 307 385 l 307 -322 l 103 -322 z "},"¢":{"ha":716,"x_min":37,"x_max":693,"o":"m 37 351 q 114 585 37 488 q 317 708 191 682 l 317 892 l 486 892 l 486 708 q 692 557 614 677 l 546 449 q 403 542 498 542 q 285 488 327 542 q 243 351 243 434 q 286 216 243 270 q 404 163 328 163 q 550 256 500 163 l 693 146 q 486 -4 615 24 l 486 -207 l 317 -207 l 317 -4 q 114 119 190 22 q 37 351 37 216 z "},"£":{"ha":836,"x_min":21,"x_max":806,"o":"m 21 0 l 21 5 q 48 46 26 13 q 78 93 70 80 q 106 140 87 106 q 133 194 125 174 q 153 248 141 214 q 168 309 165 282 q 171 370 171 336 q 164 437 171 404 l 29 437 l 29 596 l 114 596 q 97 711 97 658 q 189 950 97 861 q 433 1039 280 1039 q 551 1019 497 1039 q 643 964 606 998 q 705 890 680 930 q 742 808 729 851 l 543 754 q 504 832 535 802 q 425 861 473 861 q 334 824 366 861 q 301 725 301 787 q 323 596 301 679 l 546 596 l 546 437 l 368 437 q 378 366 378 402 q 323 178 378 261 l 490 178 q 578 205 551 178 q 606 301 606 233 l 806 301 q 738 77 806 154 q 533 0 671 0 l 21 0 z "},"¤":{"ha":923,"x_min":33,"x_max":890,"o":"m 33 66 l 197 229 q 165 364 165 290 q 197 498 165 438 l 33 661 l 164 790 l 328 627 q 461 659 390 659 q 596 627 531 659 l 760 790 l 890 661 l 726 498 q 758 364 758 438 q 725 229 758 289 l 890 66 l 760 -62 l 593 103 q 461 74 535 74 q 329 103 387 74 l 164 -62 l 33 66 m 335 364 q 371 265 335 304 q 461 225 406 225 q 552 265 516 225 q 589 364 589 304 q 552 465 589 425 q 461 505 516 505 q 371 465 406 505 q 335 364 335 425 z "},"¥":{"ha":962,"x_min":4,"x_max":960,"o":"m 4 1021 l 250 1021 l 482 627 l 713 1021 l 960 1021 l 668 550 l 818 550 l 818 403 l 587 403 l 587 300 l 818 300 l 818 151 l 587 151 l 587 0 l 376 0 l 376 151 l 147 151 l 147 300 l 376 300 l 376 403 l 147 403 l 147 550 l 294 550 l 4 1021 z "},"¦":{"ha":349,"x_min":78,"x_max":271,"o":"m 78 -168 l 78 260 l 271 260 l 271 -168 l 78 -168 m 78 543 l 78 971 l 271 971 l 271 543 l 78 543 z "},"§":{"ha":635,"x_min":31,"x_max":597,"o":"m 31 -24 l 151 98 q 282 29 199 29 q 359 54 332 29 q 387 119 387 78 q 336 193 387 168 q 312 202 325 199 q 281 208 298 205 q 253 212 263 210 q 98 295 157 230 q 39 452 39 361 q 65 557 39 509 q 138 635 92 606 q 54 793 54 690 q 134 967 54 896 q 346 1039 213 1039 q 570 945 482 1039 l 456 821 q 345 873 412 873 q 270 850 296 873 q 243 787 243 827 q 309 705 243 727 q 353 695 324 699 q 393 688 381 691 q 542 603 486 668 q 597 452 597 538 q 570 344 597 392 q 496 265 543 296 q 578 114 578 213 q 496 -64 578 9 q 281 -136 415 -136 q 140 -108 205 -136 q 31 -24 75 -80 m 247 525 q 233 511 247 525 q 220 452 220 496 q 247 378 220 407 q 318 350 275 350 q 389 378 361 350 q 418 452 418 407 q 389 525 418 496 q 318 554 361 554 q 247 525 275 554 z "},"¨":{"ha":508,"x_min":24,"x_max":485,"o":"m 51 831 q 37 845 51 831 q 24 901 24 859 q 51 971 24 944 q 121 999 78 999 q 191 971 163 999 q 218 901 218 944 q 191 831 218 859 q 121 804 163 804 q 51 831 78 804 m 317 831 q 304 845 317 831 q 290 901 290 859 q 317 971 290 944 q 387 999 345 999 q 457 971 429 999 q 485 901 485 944 q 457 831 485 859 q 387 804 429 804 q 317 831 345 804 z "},"©":{"ha":957,"x_min":43,"x_max":916,"o":"m 43 644 q 99 872 43 770 q 255 1032 155 974 q 479 1090 355 1090 q 652 1056 572 1090 q 791 963 733 1022 q 882 821 849 904 q 916 644 916 738 q 859 416 916 517 q 702 257 802 314 q 479 200 602 200 q 305 234 386 200 q 166 326 224 267 q 76 467 109 384 q 43 644 43 549 m 155 644 q 247 400 155 497 q 479 302 338 302 q 711 400 618 302 q 803 644 803 498 q 761 819 803 740 q 645 942 720 897 q 479 987 571 987 q 312 942 387 987 q 196 818 237 897 q 155 644 155 740 m 256 653 q 325 824 256 756 q 498 892 393 892 q 593 875 553 892 q 667 821 633 858 l 600 741 q 498 786 564 786 q 403 750 437 786 q 368 653 368 715 q 402 553 368 589 q 498 517 437 517 q 602 562 561 517 l 667 484 q 498 411 602 411 q 324 479 393 411 q 256 653 256 547 z "},"ª":{"ha":611,"x_min":32,"x_max":543,"o":"m 92 602 q 62 638 92 602 q 32 786 32 674 q 92 970 32 898 q 248 1043 153 1043 q 389 982 342 1043 l 397 1034 l 543 1034 l 543 539 l 397 539 l 389 590 q 248 529 342 529 q 92 602 153 529 m 222 870 q 209 855 222 870 q 196 786 196 840 q 222 701 196 732 q 292 669 248 669 q 379 724 345 669 l 379 850 q 292 901 345 901 q 222 870 248 901 z "},"«":{"ha":748,"x_min":21,"x_max":728,"o":"m 21 353 l 21 358 l 195 636 l 379 636 l 212 355 l 379 75 l 195 75 l 21 353 m 370 353 l 370 358 l 543 636 l 728 636 l 561 355 l 728 75 l 543 75 l 370 353 z "},"¬":{"ha":854,"x_min":50,"x_max":804,"o":"m 50 489 l 50 629 l 804 629 l 804 203 l 663 203 l 663 489 l 50 489 z "},"­":{"ha":598,"x_min":52,"x_max":546,"o":"m 52 265 l 52 453 l 546 453 l 546 265 l 52 265 z "},"®":{"ha":957,"x_min":43,"x_max":916,"o":"m 43 644 q 99 872 43 770 q 255 1032 155 974 q 479 1090 355 1090 q 652 1056 572 1090 q 791 963 733 1022 q 882 821 849 904 q 916 644 916 738 q 859 416 916 517 q 702 257 802 314 q 479 200 602 200 q 305 234 386 200 q 166 326 224 267 q 76 467 109 384 q 43 644 43 549 m 155 644 q 247 400 155 497 q 479 302 338 302 q 711 400 618 302 q 803 644 803 498 q 761 819 803 740 q 645 942 720 897 q 479 987 571 987 q 312 942 387 987 q 196 818 237 897 q 155 644 155 740 m 300 415 l 300 886 l 492 886 q 612 844 562 886 q 661 730 661 802 q 639 648 661 684 q 578 591 616 612 l 684 415 l 554 415 l 463 571 l 412 571 l 412 415 l 300 415 m 412 671 l 481 671 q 530 685 512 671 q 549 729 549 700 q 530 771 549 757 q 481 785 512 785 l 412 785 l 412 671 z "},"¯":{"ha":429,"x_min":24,"x_max":404,"o":"m 24 822 l 24 958 l 404 958 l 404 822 l 24 822 z "},"°":{"ha":505,"x_min":37,"x_max":468,"o":"m 99 672 q 68 702 99 672 q 37 823 37 732 q 99 976 37 915 q 254 1038 161 1038 q 407 976 346 1038 q 468 823 468 915 q 407 672 468 732 q 254 612 346 612 q 99 672 161 612 m 171 823 q 194 762 171 787 q 254 737 218 737 q 312 762 289 737 q 335 823 335 787 q 312 887 335 862 q 254 913 289 913 q 194 887 218 913 q 171 823 171 862 z "},"±":{"ha":711,"x_min":50,"x_max":661,"o":"m 50 78 l 50 264 l 661 264 l 661 78 l 50 78 m 50 557 l 50 743 l 261 743 l 261 956 l 447 956 l 447 743 l 661 743 l 661 557 l 447 557 l 447 345 l 261 345 l 261 557 l 50 557 z "},"²":{"ha":477,"x_min":33,"x_max":452,"o":"m 33 962 q 237 1140 66 1140 q 391 1086 333 1140 q 449 947 449 1032 q 432 870 449 907 q 383 791 416 833 l 294 676 l 452 676 l 452 547 l 49 547 l 49 551 l 258 865 q 291 914 283 898 q 300 951 300 930 q 282 994 300 977 q 237 1010 265 1010 q 167 932 177 1010 l 33 962 z "},"³":{"ha":468,"x_min":33,"x_max":454,"o":"m 33 705 l 167 734 q 243 667 177 667 q 288 684 271 667 q 306 729 306 701 q 288 773 306 755 q 241 790 270 790 l 178 790 l 178 901 l 241 901 q 282 917 267 903 q 298 956 298 931 q 281 995 298 980 q 237 1010 264 1010 q 197 995 214 1010 q 175 951 180 981 l 47 1006 q 117 1106 67 1072 q 240 1140 166 1140 q 388 1086 331 1140 q 444 954 444 1033 q 382 840 444 882 q 454 722 454 801 q 396 589 454 641 q 243 536 338 536 q 33 705 66 536 z "},"´":{"ha":464,"x_min":21,"x_max":436,"o":"m 21 796 l 207 997 l 436 997 l 197 796 l 21 796 z "},"µ":{"ha":837,"x_min":93,"x_max":745,"o":"m 93 -319 l 93 704 l 297 704 l 297 302 q 326 212 297 245 q 406 178 355 178 q 541 261 484 178 l 541 704 l 745 704 l 745 0 l 561 0 l 551 77 q 367 -14 485 -14 q 297 0 326 -14 l 297 -319 l 93 -319 z "},"¶":{"ha":1050,"x_min":33,"x_max":1010,"o":"m 33 715 q 83 885 33 815 q 217 987 133 954 q 414 1021 302 1021 l 1010 1021 l 1010 864 l 893 864 l 893 -153 l 722 -153 l 722 864 l 586 864 l 586 -153 l 415 -153 l 415 422 l 411 422 q 264 440 332 422 q 145 493 197 458 q 63 585 92 528 q 33 715 33 642 z "},"·":{"ha":323,"x_min":37,"x_max":286,"o":"m 37 357 q 73 445 37 410 q 163 481 109 481 q 251 445 216 481 q 286 357 286 410 q 251 268 286 303 q 163 233 216 233 q 73 268 109 233 q 37 357 37 303 z "},"¸":{"ha":344,"x_min":21,"x_max":328,"o":"m 21 -297 l 86 -221 q 157 -256 118 -256 q 196 -242 181 -256 q 211 -204 211 -229 q 149 -153 211 -157 q 81 -163 115 -153 l 77 -157 l 114 36 l 212 28 l 195 -65 q 291 -106 255 -69 q 328 -204 328 -143 q 281 -315 328 -275 q 160 -355 234 -355 q 21 -297 66 -355 z "},"¹":{"ha":373,"x_min":29,"x_max":313,"o":"m 29 1010 l 310 1140 l 313 1140 l 313 547 l 165 547 l 165 914 l 89 873 l 29 1010 z "},"º":{"ha":590,"x_min":32,"x_max":558,"o":"m 32 786 q 106 970 32 897 q 294 1043 181 1043 q 483 970 408 1043 q 558 786 558 897 q 483 602 558 675 q 294 529 408 529 q 106 602 181 529 q 32 786 32 675 m 224 869 q 210 852 224 869 q 196 786 196 836 q 224 703 196 736 q 294 669 252 669 q 366 703 337 669 q 395 786 395 736 q 366 868 395 836 q 294 901 337 901 q 224 869 252 901 z "},"»":{"ha":748,"x_min":21,"x_max":728,"o":"m 21 75 l 187 355 l 21 636 l 205 636 l 379 358 l 379 353 l 205 75 l 21 75 m 370 75 l 536 355 l 370 636 l 554 636 l 728 358 l 728 353 l 554 75 l 370 75 z "},"¼":{"ha":1072,"x_min":29,"x_max":1059,"o":"m 29 871 l 310 1002 l 313 1002 l 313 408 l 165 408 l 165 775 l 89 734 l 29 871 m 182 0 l 688 1021 l 872 1021 l 367 0 l 182 0 m 559 65 l 559 68 l 994 595 l 997 595 l 997 171 l 1059 171 l 1059 65 l 997 65 l 997 0 l 851 0 l 851 65 l 559 65 m 758 164 l 867 164 l 867 296 l 758 164 z "},"½":{"ha":1152,"x_min":29,"x_max":1126,"o":"m 29 871 l 310 1002 l 313 1002 l 313 408 l 165 408 l 165 775 l 89 734 l 29 871 m 182 0 l 688 1021 l 872 1021 l 367 0 l 182 0 m 708 415 q 913 593 741 593 q 1066 539 1008 593 q 1124 400 1124 485 q 1059 244 1124 329 l 970 129 l 1126 129 l 1126 0 l 724 0 l 724 4 l 933 318 q 967 367 958 351 q 975 404 975 384 q 958 446 975 430 q 913 463 941 463 q 842 385 852 463 l 708 415 z "},"¾":{"ha":1168,"x_min":33,"x_max":1153,"o":"m 33 567 l 167 596 q 243 528 177 528 q 288 545 271 528 q 306 590 306 562 q 288 634 306 616 q 241 652 270 652 l 178 652 l 178 762 l 241 762 q 282 778 267 764 q 298 817 298 792 q 281 856 298 841 q 237 871 264 871 q 197 856 214 871 q 175 812 180 842 l 47 867 q 117 967 67 933 q 240 1002 166 1002 q 388 948 331 1002 q 444 815 444 895 q 382 701 444 743 q 454 583 454 662 q 396 450 454 502 q 243 397 338 397 q 33 567 66 397 m 277 0 l 782 1021 l 966 1021 l 461 0 l 277 0 m 654 65 l 654 68 l 1089 595 l 1092 595 l 1092 171 l 1153 171 l 1153 65 l 1092 65 l 1092 0 l 946 0 l 946 65 l 654 65 m 852 164 l 961 164 l 961 296 l 852 164 z "},"¿":{"ha":729,"x_min":45,"x_max":704,"o":"m 45 -49 q 58 40 45 1 q 91 106 71 80 q 135 155 111 133 q 185 196 160 176 q 230 235 210 215 q 262 284 250 256 q 275 349 275 313 l 275 385 l 479 385 l 479 321 q 467 237 479 275 q 435 174 455 199 q 392 128 416 149 q 345 89 368 106 q 301 52 321 71 q 269 8 281 33 q 257 -46 257 -16 q 291 -127 257 -98 q 376 -157 324 -157 q 462 -125 429 -157 q 503 -40 495 -93 l 704 -74 q 593 -271 677 -201 q 374 -340 509 -340 q 137 -257 229 -340 q 45 -49 45 -173 m 290 512 q 273 529 290 512 q 256 597 256 546 q 290 683 256 649 q 376 717 324 717 q 462 683 429 717 q 496 597 496 650 q 462 512 496 545 q 376 478 429 478 q 290 512 324 478 z "},"À":{"ha":1005,"x_min":7,"x_max":999,"o":"m 7 0 l 500 1039 l 505 1039 l 999 0 l 765 0 l 699 158 l 307 158 l 240 0 l 7 0 m 183 1239 l 424 1239 l 599 1072 l 401 1072 l 183 1239 m 374 323 l 632 323 l 503 629 l 374 323 z "},"Á":{"ha":1005,"x_min":7,"x_max":999,"o":"m 7 0 l 500 1039 l 505 1039 l 999 0 l 765 0 l 699 158 l 307 158 l 240 0 l 7 0 m 374 323 l 632 323 l 503 629 l 374 323 m 386 1072 l 561 1239 l 802 1239 l 583 1072 l 386 1072 z "},"Â":{"ha":1005,"x_min":7,"x_max":999,"o":"m 7 0 l 500 1039 l 505 1039 l 999 0 l 765 0 l 699 158 l 307 158 l 240 0 l 7 0 m 260 1072 l 503 1286 l 745 1072 l 583 1072 l 503 1140 l 421 1072 l 260 1072 m 374 323 l 632 323 l 503 629 l 374 323 z "},"Ã":{"ha":1005,"x_min":7,"x_max":999,"o":"m 7 0 l 500 1039 l 505 1039 l 999 0 l 765 0 l 699 158 l 307 158 l 240 0 l 7 0 m 257 1075 q 303 1232 257 1179 q 421 1284 350 1284 q 473 1275 450 1284 q 512 1251 496 1265 q 540 1223 527 1237 q 567 1199 553 1208 q 595 1189 581 1189 q 636 1276 636 1189 l 746 1276 q 699 1121 746 1175 q 582 1067 652 1067 q 530 1077 553 1067 q 494 1101 507 1086 q 469 1129 480 1115 q 444 1153 457 1143 q 414 1162 430 1162 q 377 1141 388 1162 q 367 1075 367 1119 l 257 1075 m 374 323 l 632 323 l 503 629 l 374 323 z "},"Ä":{"ha":1005,"x_min":7,"x_max":999,"o":"m 7 0 l 500 1039 l 505 1039 l 999 0 l 765 0 l 699 158 l 307 158 l 240 0 l 7 0 m 272 1161 q 299 1231 272 1204 q 370 1258 327 1258 q 439 1231 412 1258 q 467 1161 467 1204 q 439 1092 467 1119 q 370 1064 412 1064 q 299 1092 327 1064 q 272 1161 272 1119 m 374 323 l 632 323 l 503 629 l 374 323 m 539 1161 q 566 1231 539 1204 q 636 1258 593 1258 q 706 1231 678 1258 q 733 1161 733 1204 q 706 1092 733 1119 q 636 1064 678 1064 q 566 1092 593 1064 q 539 1161 539 1119 z "},"Å":{"ha":1005,"x_min":7,"x_max":999,"o":"m 7 0 l 500 1039 l 505 1039 l 999 0 l 765 0 l 699 158 l 307 158 l 240 0 l 7 0 m 332 1235 q 380 1355 332 1307 q 503 1402 429 1402 q 623 1355 574 1402 q 671 1235 671 1307 q 623 1115 671 1162 q 503 1068 574 1068 q 380 1115 429 1068 q 332 1235 332 1162 m 374 323 l 632 323 l 503 629 l 374 323 m 460 1278 q 451 1270 460 1278 q 443 1235 443 1261 q 460 1192 443 1209 q 503 1175 477 1175 q 543 1192 527 1175 q 559 1235 559 1209 q 543 1278 559 1261 q 503 1296 526 1296 q 460 1278 477 1296 z "},"Æ":{"ha":1236,"x_min":7,"x_max":1186,"o":"m 7 0 l 460 1021 l 1175 1021 l 1175 828 l 654 828 l 743 607 l 1117 607 l 1117 428 l 817 428 l 914 193 l 1186 193 l 1186 0 l 762 0 l 697 161 l 309 161 l 243 0 l 7 0 m 372 321 l 633 321 l 503 647 l 372 321 z "},"Ç":{"ha":947,"x_min":41,"x_max":936,"o":"m 41 511 q 108 781 41 661 q 294 970 174 901 q 566 1039 414 1039 q 772 1002 684 1039 q 935 886 859 964 l 802 732 q 566 846 705 846 q 341 752 427 846 q 256 511 256 659 q 341 270 256 364 q 566 175 427 175 q 804 292 707 175 l 936 138 q 771 20 861 56 q 567 -18 682 -17 l 558 -65 q 655 -106 618 -69 q 692 -204 692 -144 q 645 -315 692 -275 q 524 -355 597 -355 q 385 -297 429 -355 l 450 -221 q 521 -256 482 -256 q 560 -242 545 -256 q 575 -204 575 -229 q 513 -153 575 -157 q 444 -163 479 -153 l 440 -157 l 468 -9 q 159 165 277 22 q 41 511 41 309 z "},"È":{"ha":822,"x_min":102,"x_max":772,"o":"m 102 0 l 102 1021 l 761 1021 l 761 828 l 314 828 l 314 607 l 701 607 l 701 428 l 314 428 l 314 193 l 772 193 l 772 0 l 102 0 m 127 1239 l 368 1239 l 543 1072 l 346 1072 l 127 1239 z "},"É":{"ha":822,"x_min":102,"x_max":772,"o":"m 102 0 l 102 1021 l 761 1021 l 761 828 l 314 828 l 314 607 l 701 607 l 701 428 l 314 428 l 314 193 l 772 193 l 772 0 l 102 0 m 330 1072 l 505 1239 l 746 1239 l 528 1072 l 330 1072 z "},"Ê":{"ha":822,"x_min":102,"x_max":772,"o":"m 102 0 l 102 1021 l 761 1021 l 761 828 l 314 828 l 314 607 l 701 607 l 701 428 l 314 428 l 314 193 l 772 193 l 772 0 l 102 0 m 204 1072 l 447 1286 l 689 1072 l 528 1072 l 447 1140 l 366 1072 l 204 1072 z "},"Ë":{"ha":822,"x_min":102,"x_max":772,"o":"m 102 0 l 102 1021 l 761 1021 l 761 828 l 314 828 l 314 607 l 701 607 l 701 428 l 314 428 l 314 193 l 772 193 l 772 0 l 102 0 m 216 1161 q 244 1231 216 1204 q 314 1258 271 1258 q 384 1231 357 1258 q 411 1161 411 1204 q 384 1092 411 1119 q 314 1064 357 1064 q 244 1092 271 1064 q 216 1161 216 1119 m 484 1161 q 511 1231 484 1204 q 581 1258 538 1258 q 650 1231 623 1258 q 677 1161 677 1204 q 650 1092 677 1119 q 581 1064 623 1064 q 511 1092 538 1064 q 484 1161 484 1119 z "},"Ì":{"ha":415,"x_min":-110,"x_max":314,"o":"m -110 1239 l 131 1239 l 306 1072 l 109 1072 l -110 1239 m 102 0 l 102 1021 l 314 1021 l 314 0 l 102 0 z "},"Í":{"ha":415,"x_min":90,"x_max":505,"o":"m 90 1072 l 265 1239 l 505 1239 l 288 1072 l 90 1072 m 102 0 l 102 1021 l 314 1021 l 314 0 l 102 0 z "},"Î":{"ha":415,"x_min":-35,"x_max":450,"o":"m -35 1072 l 208 1286 l 450 1072 l 289 1072 l 208 1140 l 126 1072 l -35 1072 m 102 0 l 102 1021 l 314 1021 l 314 0 l 102 0 z "},"Ï":{"ha":415,"x_min":-21,"x_max":440,"o":"m -21 1161 q 6 1231 -21 1204 q 77 1258 34 1258 q 146 1231 119 1258 q 174 1161 174 1204 q 146 1092 174 1119 q 77 1064 119 1064 q 6 1092 34 1064 q -21 1161 -21 1119 m 102 0 l 102 1021 l 314 1021 l 314 0 l 102 0 m 245 1161 q 273 1231 245 1204 q 343 1258 300 1258 q 413 1231 385 1258 q 440 1161 440 1204 q 413 1092 440 1119 q 343 1064 385 1064 q 273 1092 300 1064 q 245 1161 245 1119 z "},"Ð":{"ha":1048,"x_min":9,"x_max":1007,"o":"m 9 458 l 9 595 l 123 595 l 123 1021 l 449 1021 q 859 886 711 1021 q 1007 511 1007 752 q 860 135 1007 270 q 449 0 713 0 l 123 0 l 123 458 l 9 458 m 336 193 l 441 193 q 702 276 612 193 q 791 510 791 358 q 702 744 791 662 q 441 827 612 827 l 336 827 l 336 595 l 478 595 l 478 458 l 336 458 l 336 193 z "},"Ñ":{"ha":1023,"x_min":102,"x_max":922,"o":"m 102 0 l 102 1039 l 107 1039 l 710 452 l 710 1021 l 922 1021 l 922 -18 l 917 -18 l 314 570 l 314 0 l 102 0 m 267 1075 q 313 1232 267 1179 q 431 1284 359 1284 q 483 1275 459 1284 q 521 1251 506 1265 q 550 1223 536 1237 q 576 1199 563 1208 q 604 1189 590 1189 q 646 1276 646 1189 l 755 1276 q 709 1121 755 1175 q 591 1067 662 1067 q 539 1077 562 1067 q 503 1101 517 1086 q 478 1129 490 1115 q 454 1153 467 1143 q 424 1162 440 1162 q 387 1141 398 1162 q 376 1075 376 1119 l 267 1075 z "},"Ò":{"ha":1131,"x_min":41,"x_max":1090,"o":"m 41 509 q 109 781 41 660 q 297 971 177 903 q 566 1039 417 1039 q 833 971 713 1039 q 1022 781 954 903 q 1090 509 1090 660 q 1022 238 1090 359 q 833 50 954 117 q 566 -18 713 -18 q 297 50 417 -18 q 109 238 177 117 q 41 509 41 359 m 245 1253 l 486 1253 l 661 1086 l 464 1086 l 245 1253 m 256 509 q 342 269 256 362 q 566 175 429 175 q 788 269 702 175 q 875 509 875 362 q 788 751 875 656 q 566 846 702 846 q 342 751 429 846 q 256 509 256 656 z "},"Ó":{"ha":1131,"x_min":41,"x_max":1090,"o":"m 41 509 q 109 781 41 660 q 297 971 177 903 q 566 1039 417 1039 q 833 971 713 1039 q 1022 781 954 903 q 1090 509 1090 660 q 1022 238 1090 359 q 833 50 954 117 q 566 -18 713 -18 q 297 50 417 -18 q 109 238 177 117 q 41 509 41 359 m 256 509 q 342 269 256 362 q 566 175 429 175 q 788 269 702 175 q 875 509 875 362 q 788 751 875 656 q 566 846 702 846 q 342 751 429 846 q 256 509 256 656 m 449 1086 l 624 1253 l 864 1253 l 646 1086 l 449 1086 z "},"Ô":{"ha":1131,"x_min":41,"x_max":1090,"o":"m 41 509 q 109 781 41 660 q 297 971 177 903 q 566 1039 417 1039 q 833 971 713 1039 q 1022 781 954 903 q 1090 509 1090 660 q 1022 238 1090 359 q 833 50 954 117 q 566 -18 713 -18 q 297 50 417 -18 q 109 238 177 117 q 41 509 41 359 m 256 509 q 342 269 256 362 q 566 175 429 175 q 788 269 702 175 q 875 509 875 362 q 788 751 875 656 q 566 846 702 846 q 342 751 429 846 q 256 509 256 656 m 322 1086 l 566 1300 l 807 1086 l 646 1086 l 566 1154 l 484 1086 l 322 1086 z "},"Õ":{"ha":1131,"x_min":41,"x_max":1090,"o":"m 41 509 q 109 781 41 660 q 297 971 177 903 q 566 1039 417 1039 q 833 971 713 1039 q 1022 781 954 903 q 1090 509 1090 660 q 1022 238 1090 359 q 833 50 954 117 q 566 -18 713 -18 q 297 50 417 -18 q 109 238 177 117 q 41 509 41 359 m 256 509 q 342 269 256 362 q 566 175 429 175 q 788 269 702 175 q 875 509 875 362 q 788 751 875 656 q 566 846 702 846 q 342 751 429 846 q 256 509 256 656 m 319 1089 q 366 1246 319 1194 q 484 1299 412 1299 q 535 1289 512 1299 q 574 1265 559 1279 q 603 1237 589 1251 q 629 1213 616 1223 q 657 1203 643 1203 q 699 1291 699 1203 l 808 1291 q 762 1135 808 1189 q 644 1080 715 1080 q 592 1090 615 1080 q 556 1114 570 1100 q 531 1143 543 1128 q 506 1167 519 1157 q 476 1177 492 1177 q 440 1155 450 1177 q 429 1089 429 1133 l 319 1089 z "},"Ö":{"ha":1131,"x_min":41,"x_max":1090,"o":"m 41 509 q 109 781 41 660 q 297 971 177 903 q 566 1039 417 1039 q 833 971 713 1039 q 1022 781 954 903 q 1090 509 1090 660 q 1022 238 1090 359 q 833 50 954 117 q 566 -18 713 -18 q 297 50 417 -18 q 109 238 177 117 q 41 509 41 359 m 256 509 q 342 269 256 362 q 566 175 429 175 q 788 269 702 175 q 875 509 875 362 q 788 751 875 656 q 566 846 702 846 q 342 751 429 846 q 256 509 256 656 m 335 1175 q 362 1245 335 1218 q 432 1272 389 1272 q 502 1245 475 1272 q 529 1175 529 1218 q 502 1105 529 1133 q 432 1078 475 1078 q 362 1105 389 1078 q 335 1175 335 1133 m 602 1175 q 629 1245 602 1218 q 699 1272 656 1272 q 768 1245 741 1272 q 796 1175 796 1218 q 768 1106 796 1134 q 699 1078 741 1078 q 629 1105 656 1078 q 602 1175 602 1133 z "},"×":{"ha":682,"x_min":52,"x_max":632,"o":"m 52 326 l 210 485 l 52 643 l 182 775 l 342 616 l 500 777 l 632 644 l 472 485 l 632 326 l 500 195 l 342 354 l 182 195 l 52 326 z "},"Ø":{"ha":1131,"x_min":41,"x_max":1090,"o":"m 41 509 q 109 781 41 660 q 297 971 177 903 q 566 1039 417 1039 q 750 1007 664 1039 l 819 1132 l 1000 1132 l 890 932 q 1038 750 985 860 q 1090 509 1090 641 q 1022 238 1090 359 q 833 50 954 117 q 566 -18 713 -18 q 382 11 471 -18 l 314 -111 l 132 -111 l 241 86 q 94 267 147 158 q 41 509 41 376 m 256 509 q 342 268 256 363 l 654 833 q 566 846 613 846 q 342 751 429 846 q 256 509 256 656 m 478 186 q 566 175 523 175 q 788 269 702 175 q 875 509 875 362 q 789 750 875 655 l 478 186 z "},"Ù":{"ha":964,"x_min":89,"x_max":875,"o":"m 89 367 l 89 1021 l 301 1021 l 301 380 q 348 231 301 286 q 482 175 394 175 q 617 231 570 175 q 664 380 664 286 l 664 1021 l 875 1021 l 875 367 q 773 85 875 189 q 482 -18 671 -18 q 191 85 293 -18 q 89 367 89 189 m 163 1239 l 403 1239 l 578 1072 l 380 1072 l 163 1239 z "},"Ú":{"ha":964,"x_min":89,"x_max":875,"o":"m 89 367 l 89 1021 l 301 1021 l 301 380 q 348 231 301 286 q 482 175 394 175 q 617 231 570 175 q 664 380 664 286 l 664 1021 l 875 1021 l 875 367 q 773 85 875 189 q 482 -18 671 -18 q 191 85 293 -18 q 89 367 89 189 m 366 1072 l 541 1239 l 781 1239 l 562 1072 l 366 1072 z "},"Û":{"ha":964,"x_min":89,"x_max":875,"o":"m 89 367 l 89 1021 l 301 1021 l 301 380 q 348 231 301 286 q 482 175 394 175 q 617 231 570 175 q 664 380 664 286 l 664 1021 l 875 1021 l 875 367 q 773 85 875 189 q 482 -18 671 -18 q 191 85 293 -18 q 89 367 89 189 m 239 1072 l 482 1286 l 724 1072 l 562 1072 l 482 1140 l 400 1072 l 239 1072 z "},"Ü":{"ha":964,"x_min":89,"x_max":875,"o":"m 89 367 l 89 1021 l 301 1021 l 301 380 q 348 231 301 286 q 482 175 394 175 q 617 231 570 175 q 664 380 664 286 l 664 1021 l 875 1021 l 875 367 q 773 85 875 189 q 482 -18 671 -18 q 191 85 293 -18 q 89 367 89 189 m 252 1161 q 279 1231 252 1204 q 349 1258 306 1258 q 418 1231 391 1258 q 446 1161 446 1204 q 418 1092 446 1119 q 349 1064 391 1064 q 279 1092 306 1064 q 252 1161 252 1119 m 518 1161 q 545 1231 518 1204 q 615 1258 572 1258 q 685 1231 657 1258 q 713 1161 713 1204 q 685 1092 713 1120 q 615 1064 657 1064 q 545 1092 572 1064 q 518 1161 518 1119 z "},"Ý":{"ha":966,"x_min":5,"x_max":961,"o":"m 5 1021 l 252 1021 l 484 627 l 715 1021 l 961 1021 l 590 418 l 590 0 l 379 0 l 379 414 l 5 1021 m 367 1072 l 542 1239 l 782 1239 l 564 1072 l 367 1072 z "},"Þ":{"ha":840,"x_min":102,"x_max":804,"o":"m 102 0 l 102 1021 l 314 1021 l 314 850 l 468 850 q 595 829 534 850 q 702 771 655 808 q 777 674 749 733 q 804 543 804 615 q 777 413 804 472 q 702 316 749 354 q 595 258 655 279 q 468 237 534 237 l 314 237 l 314 0 l 102 0 m 314 419 l 447 419 q 550 452 510 419 q 590 543 590 484 q 550 635 590 602 q 447 668 509 668 l 314 668 l 314 419 z "},"ß":{"ha":912,"x_min":98,"x_max":851,"o":"m 98 0 l 98 697 q 146 876 98 798 q 274 997 195 955 q 450 1039 354 1039 q 693 956 602 1039 q 785 742 785 872 q 758 631 785 677 q 686 557 730 584 q 803 468 755 533 q 851 300 851 404 q 758 68 851 155 q 504 -18 665 -18 q 368 8 427 -18 l 403 189 q 497 165 452 165 q 597 202 558 165 q 636 302 636 239 q 608 386 636 351 q 528 436 581 420 q 428 449 477 449 l 428 603 q 510 625 469 603 q 571 726 571 658 q 532 822 571 786 q 439 857 494 857 q 341 820 378 857 q 304 708 304 782 l 304 0 l 98 0 z "},"à":{"ha":844,"x_min":37,"x_max":751,"o":"m 37 351 q 125 614 37 511 q 351 718 212 718 q 475 693 423 718 q 557 625 528 667 l 568 704 l 751 704 l 751 0 l 568 0 l 557 78 q 475 12 528 37 q 351 -14 423 -14 q 187 34 259 -14 q 76 164 115 81 q 37 351 37 247 m 90 997 l 319 997 l 505 796 l 329 796 l 90 997 m 243 351 q 287 215 243 266 q 401 164 331 164 q 546 252 493 164 l 546 452 q 401 541 492 541 q 287 489 331 541 q 243 351 243 437 z "},"á":{"ha":844,"x_min":37,"x_max":751,"o":"m 37 351 q 125 614 37 511 q 351 718 212 718 q 475 693 423 718 q 557 625 528 667 l 568 704 l 751 704 l 751 0 l 568 0 l 557 78 q 475 12 528 37 q 351 -14 423 -14 q 187 34 259 -14 q 76 164 115 81 q 37 351 37 247 m 243 351 q 287 215 243 266 q 401 164 331 164 q 546 252 493 164 l 546 452 q 401 541 492 541 q 287 489 331 541 q 243 351 243 437 m 307 796 l 493 997 l 722 997 l 484 796 l 307 796 z "},"â":{"ha":844,"x_min":37,"x_max":751,"o":"m 37 351 q 125 614 37 511 q 351 718 212 718 q 475 693 423 718 q 557 625 528 667 l 568 704 l 751 704 l 751 0 l 568 0 l 557 78 q 475 12 528 37 q 351 -14 423 -14 q 187 34 259 -14 q 76 164 115 81 q 37 351 37 247 m 178 798 l 410 1064 l 642 798 l 485 798 l 410 876 l 335 798 l 178 798 m 243 351 q 287 215 243 266 q 401 164 331 164 q 546 252 493 164 l 546 452 q 401 541 492 541 q 287 489 331 541 q 243 351 243 437 z "},"ã":{"ha":844,"x_min":37,"x_max":751,"o":"m 37 351 q 125 614 37 511 q 351 718 212 718 q 475 693 423 718 q 557 625 528 667 l 568 704 l 751 704 l 751 0 l 568 0 l 557 78 q 475 12 528 37 q 351 -14 423 -14 q 187 34 259 -14 q 76 164 115 81 q 37 351 37 247 m 167 802 q 213 965 167 910 q 330 1019 260 1019 q 382 1009 359 1019 q 421 985 406 1000 q 449 957 436 971 q 476 933 463 943 q 504 924 490 924 q 546 1011 546 924 l 656 1011 q 609 849 656 906 q 492 793 562 793 q 440 803 463 793 q 404 827 417 812 q 378 855 390 841 q 353 879 367 869 q 323 889 340 889 q 287 867 298 889 q 277 802 277 846 l 167 802 m 243 351 q 287 215 243 266 q 401 164 331 164 q 546 252 493 164 l 546 452 q 401 541 492 541 q 287 489 331 541 q 243 351 243 437 z "},"ä":{"ha":844,"x_min":37,"x_max":751,"o":"m 37 351 q 125 614 37 511 q 351 718 212 718 q 475 693 423 718 q 557 625 528 667 l 568 704 l 751 704 l 751 0 l 568 0 l 557 78 q 475 12 528 37 q 351 -14 423 -14 q 187 34 259 -14 q 76 164 115 81 q 37 351 37 247 m 208 831 q 194 845 208 831 q 180 901 180 859 q 208 971 180 944 q 278 999 235 999 q 348 971 321 999 q 375 901 375 944 q 348 831 375 859 q 278 804 321 804 q 208 831 235 804 m 243 351 q 287 215 243 266 q 401 164 331 164 q 546 252 493 164 l 546 452 q 401 541 492 541 q 287 489 331 541 q 243 351 243 437 m 474 831 q 461 845 474 831 q 447 901 447 859 q 474 971 447 944 q 545 999 502 999 q 614 971 587 999 q 642 901 642 944 q 614 831 642 859 q 545 804 587 804 q 474 831 502 804 z "},"å":{"ha":844,"x_min":37,"x_max":751,"o":"m 37 351 q 125 614 37 511 q 351 718 212 718 q 475 693 423 718 q 557 625 528 667 l 568 704 l 751 704 l 751 0 l 568 0 l 557 78 q 475 12 528 37 q 351 -14 423 -14 q 187 34 259 -14 q 76 164 115 81 q 37 351 37 247 m 241 956 q 290 1076 241 1027 q 412 1124 339 1124 q 532 1076 484 1124 q 581 956 581 1027 q 532 836 581 883 q 412 789 484 789 q 290 836 338 789 q 241 956 241 883 m 243 351 q 287 215 243 266 q 401 164 331 164 q 546 252 493 164 l 546 452 q 401 541 492 541 q 287 489 331 541 q 243 351 243 437 m 370 999 q 361 990 370 999 q 353 956 353 981 q 370 913 353 930 q 412 896 387 896 q 453 913 437 896 q 469 956 469 930 q 453 999 469 981 q 412 1017 436 1017 q 370 999 387 1017 z "},"æ":{"ha":1315,"x_min":37,"x_max":1272,"o":"m 37 351 q 125 614 37 511 q 351 718 212 718 q 475 693 423 718 q 557 625 528 667 l 568 704 l 741 704 l 750 627 q 832 693 781 667 q 950 718 884 718 q 1128 669 1054 718 q 1237 541 1202 621 q 1272 358 1272 460 l 1272 297 l 781 297 q 957 154 803 154 q 1049 174 1007 154 q 1118 228 1092 194 l 1251 113 q 960 -14 1144 -14 q 830 11 886 -14 q 746 77 774 36 l 737 0 l 568 0 l 557 78 q 475 12 528 37 q 351 -14 423 -14 q 187 34 259 -14 q 76 164 115 81 q 37 351 37 247 m 243 351 q 287 215 243 266 q 401 164 331 164 q 546 252 493 164 l 546 452 q 401 541 492 541 q 287 489 331 541 q 243 351 243 437 m 779 425 l 1071 425 q 1029 525 1067 487 q 926 564 991 564 q 827 527 867 564 q 779 425 787 491 z "},"ç":{"ha":707,"x_min":37,"x_max":693,"o":"m 37 351 q 140 614 37 510 q 401 718 242 718 q 692 557 591 718 l 546 449 q 403 542 498 542 q 285 488 327 542 q 243 351 243 434 q 286 216 243 270 q 404 163 328 163 q 550 256 500 163 l 693 146 q 416 -14 594 -7 l 407 -65 q 504 -106 467 -69 q 541 -204 541 -144 q 493 -315 541 -275 q 372 -355 446 -355 q 233 -297 278 -355 l 298 -221 q 370 -256 330 -256 q 409 -242 394 -256 q 424 -204 424 -229 q 361 -153 424 -157 q 293 -163 328 -153 l 289 -157 l 318 -5 q 114 118 191 20 q 37 351 37 215 z "},"è":{"ha":762,"x_min":37,"x_max":720,"o":"m 37 350 q 137 614 37 509 q 392 718 236 718 q 536 690 473 718 q 639 612 600 661 q 699 498 679 562 q 720 361 720 435 l 720 296 l 243 296 q 287 191 246 227 q 404 154 328 154 q 494 174 454 154 q 558 227 534 194 l 699 113 q 570 17 642 48 q 400 -14 498 -14 q 137 88 236 -14 q 37 350 37 190 m 66 997 l 296 997 l 482 796 l 306 796 l 66 997 m 243 425 l 518 425 q 481 525 516 487 q 385 564 446 564 q 284 525 323 564 q 243 425 246 487 z "},"é":{"ha":762,"x_min":37,"x_max":720,"o":"m 37 350 q 137 614 37 509 q 392 718 236 718 q 536 690 473 718 q 639 612 600 661 q 699 498 679 562 q 720 361 720 435 l 720 296 l 243 296 q 287 191 246 227 q 404 154 328 154 q 494 174 454 154 q 558 227 534 194 l 699 113 q 570 17 642 48 q 400 -14 498 -14 q 137 88 236 -14 q 37 350 37 190 m 243 425 l 518 425 q 481 525 516 487 q 385 564 446 564 q 284 525 323 564 q 243 425 246 487 m 283 796 l 469 997 l 699 997 l 460 796 l 283 796 z "},"ê":{"ha":762,"x_min":37,"x_max":720,"o":"m 37 350 q 137 614 37 509 q 392 718 236 718 q 536 690 473 718 q 639 612 600 661 q 699 498 679 562 q 720 361 720 435 l 720 296 l 243 296 q 287 191 246 227 q 404 154 328 154 q 494 174 454 154 q 558 227 534 194 l 699 113 q 570 17 642 48 q 400 -14 498 -14 q 137 88 236 -14 q 37 350 37 190 m 155 798 l 387 1064 l 619 798 l 463 798 l 387 876 l 313 798 l 155 798 m 243 425 l 518 425 q 481 525 516 487 q 385 564 446 564 q 284 525 323 564 q 243 425 246 487 z "},"ë":{"ha":762,"x_min":37,"x_max":720,"o":"m 37 350 q 137 614 37 509 q 392 718 236 718 q 536 690 473 718 q 639 612 600 661 q 699 498 679 562 q 720 361 720 435 l 720 296 l 243 296 q 287 191 246 227 q 404 154 328 154 q 494 174 454 154 q 558 227 534 194 l 699 113 q 570 17 642 48 q 400 -14 498 -14 q 137 88 236 -14 q 37 350 37 190 m 184 831 q 170 845 184 831 q 157 901 157 859 q 184 971 157 944 q 254 999 212 999 q 324 971 297 999 q 351 901 351 944 q 324 831 351 859 q 254 804 297 804 q 184 831 212 804 m 243 425 l 518 425 q 481 525 516 487 q 385 564 446 564 q 284 525 323 564 q 243 425 246 487 m 451 831 q 437 845 451 831 q 424 901 424 859 q 451 971 424 944 q 521 999 478 999 q 590 971 563 999 q 618 901 618 944 q 590 831 618 859 q 521 804 563 804 q 451 831 478 804 z "},"ì":{"ha":391,"x_min":-123,"x_max":297,"o":"m -123 997 l 106 997 l 292 796 l 115 796 l -123 997 m 93 0 l 93 704 l 297 704 l 297 0 l 93 0 z "},"í":{"ha":391,"x_min":92,"x_max":507,"o":"m 92 796 l 278 997 l 507 997 l 268 796 l 92 796 m 93 0 l 93 704 l 297 704 l 297 0 l 93 0 z "},"î":{"ha":391,"x_min":-35,"x_max":429,"o":"m -35 798 l 197 1064 l 429 798 l 272 798 l 197 876 l 122 798 l -35 798 m 93 0 l 93 704 l 297 704 l 297 0 l 93 0 z "},"ï":{"ha":391,"x_min":-33,"x_max":428,"o":"m -6 831 q -20 845 -6 831 q -33 901 -33 859 q -6 971 -33 944 q 64 999 21 999 q 134 971 106 999 q 161 901 161 944 q 134 831 161 859 q 64 804 106 804 q -6 831 21 804 m 93 0 l 93 704 l 297 704 l 297 0 l 93 0 m 260 831 q 247 845 260 831 q 233 901 233 859 q 260 971 233 944 q 330 999 288 999 q 400 971 372 999 q 428 901 428 944 q 400 831 428 859 q 330 804 372 804 q 260 831 288 804 z "},"ð":{"ha":811,"x_min":47,"x_max":772,"o":"m 47 330 q 140 567 47 471 q 376 675 232 663 l 322 764 l 78 764 l 78 913 l 231 913 l 144 1055 l 390 1055 l 476 913 l 724 913 l 724 764 l 567 764 l 703 541 q 772 330 772 452 q 669 84 772 182 q 410 -14 566 -14 q 150 84 253 -14 q 47 330 47 182 m 252 330 q 296 203 252 253 q 410 154 341 154 q 524 204 478 154 q 570 330 570 254 q 524 458 570 406 q 410 510 477 510 q 296 458 341 510 q 252 330 252 407 z "},"ñ":{"ha":827,"x_min":93,"x_max":750,"o":"m 93 0 l 93 704 l 277 704 l 286 627 q 366 693 314 668 q 486 718 417 718 q 681 634 612 718 q 750 406 750 551 l 750 0 l 546 0 l 546 395 q 515 490 546 454 q 431 526 484 526 q 297 443 349 526 l 297 0 l 93 0 m 176 802 q 223 965 176 910 q 340 1019 269 1019 q 392 1009 369 1019 q 431 985 416 1000 q 459 957 446 971 q 486 933 473 943 q 514 924 500 924 q 555 1011 555 924 l 665 1011 q 618 849 665 906 q 501 793 572 793 q 449 803 472 793 q 413 827 427 812 q 388 855 399 841 q 363 879 377 869 q 334 889 350 889 q 297 867 308 889 q 286 802 286 846 l 176 802 z "},"ò":{"ha":817,"x_min":37,"x_max":779,"o":"m 37 350 q 85 538 37 454 q 217 670 132 623 q 407 718 302 718 q 673 613 567 718 q 779 350 779 508 q 731 163 779 246 q 598 33 683 79 q 407 -14 513 -14 q 142 89 247 -14 q 37 350 37 192 m 86 997 l 315 997 l 501 796 l 325 796 l 86 997 m 243 350 q 290 217 243 270 q 407 164 336 164 q 526 217 479 164 q 572 350 572 269 q 525 486 572 431 q 407 541 478 541 q 290 486 336 541 q 243 350 243 431 z "},"ó":{"ha":817,"x_min":37,"x_max":779,"o":"m 37 350 q 85 538 37 454 q 217 670 132 623 q 407 718 302 718 q 673 613 567 718 q 779 350 779 508 q 731 163 779 246 q 598 33 683 79 q 407 -14 513 -14 q 142 89 247 -14 q 37 350 37 192 m 243 350 q 290 217 243 270 q 407 164 336 164 q 526 217 479 164 q 572 350 572 269 q 525 486 572 431 q 407 541 478 541 q 290 486 336 541 q 243 350 243 431 m 302 796 l 489 997 l 718 997 l 479 796 l 302 796 z "},"ô":{"ha":817,"x_min":37,"x_max":779,"o":"m 37 350 q 85 538 37 454 q 217 670 132 623 q 407 718 302 718 q 673 613 567 718 q 779 350 779 508 q 731 163 779 246 q 598 33 683 79 q 407 -14 513 -14 q 142 89 247 -14 q 37 350 37 192 m 175 798 l 407 1064 l 639 798 l 482 798 l 407 876 l 332 798 l 175 798 m 243 350 q 290 217 243 270 q 407 164 336 164 q 526 217 479 164 q 572 350 572 269 q 525 486 572 431 q 407 541 478 541 q 290 486 336 541 q 243 350 243 431 z "},"õ":{"ha":817,"x_min":37,"x_max":779,"o":"m 37 350 q 85 538 37 454 q 217 670 132 623 q 407 718 302 718 q 673 613 567 718 q 779 350 779 508 q 731 163 779 246 q 598 33 683 79 q 407 -14 513 -14 q 142 89 247 -14 q 37 350 37 192 m 163 802 q 209 965 163 910 q 326 1019 256 1019 q 378 1009 355 1019 q 417 985 401 1000 q 445 957 432 971 q 472 933 458 943 q 500 924 486 924 q 542 1011 542 924 l 652 1011 q 605 849 652 906 q 488 793 558 793 q 436 803 458 793 q 399 827 413 812 q 374 855 386 841 q 349 879 363 869 q 319 889 336 889 q 283 867 294 889 q 272 802 272 846 l 163 802 m 243 350 q 290 217 243 270 q 407 164 336 164 q 526 217 479 164 q 572 350 572 269 q 525 486 572 431 q 407 541 478 541 q 290 486 336 541 q 243 350 243 431 z "},"ö":{"ha":817,"x_min":37,"x_max":779,"o":"m 37 350 q 85 538 37 454 q 217 670 132 623 q 407 718 302 718 q 673 613 567 718 q 779 350 779 508 q 731 163 779 246 q 598 33 683 79 q 407 -14 513 -14 q 142 89 247 -14 q 37 350 37 192 m 203 831 q 190 845 203 831 q 176 901 176 859 q 203 971 176 944 q 273 999 231 999 q 343 971 316 999 q 371 901 371 944 q 343 831 371 859 q 273 804 316 804 q 203 831 231 804 m 243 350 q 290 217 243 270 q 407 164 336 164 q 526 217 479 164 q 572 350 572 269 q 525 486 572 431 q 407 541 478 541 q 290 486 336 541 q 243 350 243 431 m 470 831 q 457 845 470 831 q 443 901 443 859 q 470 971 443 944 q 541 999 498 999 q 610 971 583 999 q 637 901 637 944 q 610 831 637 859 q 541 804 583 804 q 470 831 498 804 z "},"÷":{"ha":711,"x_min":50,"x_max":661,"o":"m 50 393 l 50 579 l 661 579 l 661 393 l 50 393 m 271 107 q 254 124 271 107 q 237 192 237 141 q 271 276 237 243 q 354 310 304 310 q 439 276 406 310 q 472 192 472 243 q 439 107 472 141 q 354 74 406 74 q 271 107 304 74 m 237 777 q 271 862 237 828 q 354 896 304 896 q 439 862 406 896 q 472 777 472 829 q 439 693 472 726 q 354 660 406 660 q 271 693 304 660 q 237 777 237 727 z "},"ø":{"ha":817,"x_min":37,"x_max":779,"o":"m 37 350 q 85 538 37 454 q 217 670 132 623 q 407 718 302 718 q 532 699 469 718 l 587 802 l 717 802 l 633 647 q 741 519 702 596 q 779 350 779 442 q 731 163 779 246 q 598 33 683 79 q 407 -14 513 -14 q 283 4 347 -14 l 229 -97 l 100 -97 l 182 54 q 76 180 114 104 q 37 350 37 257 m 232 350 q 272 220 232 270 l 449 545 q 407 550 431 550 q 281 493 331 550 q 232 350 232 437 m 367 157 q 407 153 385 153 q 533 209 484 153 q 583 350 583 264 q 543 481 583 426 l 367 157 z "},"ù":{"ha":822,"x_min":78,"x_max":729,"o":"m 78 296 l 78 704 l 282 704 l 282 307 q 311 213 282 248 q 390 178 339 178 q 525 261 471 178 l 525 704 l 729 704 l 729 0 l 546 0 l 536 77 q 332 -14 471 -14 q 143 69 209 -14 q 78 296 78 151 m 82 997 l 311 997 l 497 796 l 321 796 l 82 997 z "},"ú":{"ha":822,"x_min":78,"x_max":729,"o":"m 78 296 l 78 704 l 282 704 l 282 307 q 311 213 282 248 q 390 178 339 178 q 525 261 471 178 l 525 704 l 729 704 l 729 0 l 546 0 l 536 77 q 332 -14 471 -14 q 143 69 209 -14 q 78 296 78 151 m 298 796 l 485 997 l 714 997 l 475 796 l 298 796 z "},"û":{"ha":822,"x_min":78,"x_max":729,"o":"m 78 296 l 78 704 l 282 704 l 282 307 q 311 213 282 248 q 390 178 339 178 q 525 261 471 178 l 525 704 l 729 704 l 729 0 l 546 0 l 536 77 q 332 -14 471 -14 q 143 69 209 -14 q 78 296 78 151 m 171 798 l 403 1064 l 635 798 l 478 798 l 403 876 l 328 798 l 171 798 z "},"ü":{"ha":822,"x_min":78,"x_max":729,"o":"m 78 296 l 78 704 l 282 704 l 282 307 q 311 213 282 248 q 390 178 339 178 q 525 261 471 178 l 525 704 l 729 704 l 729 0 l 546 0 l 536 77 q 332 -14 471 -14 q 143 69 209 -14 q 78 296 78 151 m 199 831 q 186 845 199 831 q 172 901 172 859 q 199 971 172 944 q 269 999 227 999 q 339 971 312 999 q 367 901 367 944 q 339 831 367 859 q 269 804 312 804 q 199 831 227 804 m 466 831 q 453 845 466 831 q 439 901 439 859 q 466 971 439 944 q 536 999 494 999 q 606 971 578 999 q 633 901 633 944 q 606 831 633 859 q 536 804 578 804 q 466 831 494 804 z "},"ý":{"ha":804,"x_min":11,"x_max":791,"o":"m 11 -319 l 292 176 l 14 704 l 241 704 l 401 359 l 562 704 l 791 704 l 244 -319 l 11 -319 m 281 796 l 467 997 l 696 997 l 457 796 l 281 796 z "},"þ":{"ha":842,"x_min":93,"x_max":807,"o":"m 93 -319 l 93 1055 l 297 1055 l 297 640 q 493 718 368 718 q 720 614 632 718 q 807 351 807 511 q 768 164 807 247 q 657 34 729 81 q 493 -14 585 -14 q 297 64 366 -14 l 297 -319 l 93 -319 m 297 253 q 443 164 350 164 q 557 215 513 164 q 602 351 602 266 q 557 489 602 437 q 443 541 513 541 q 297 452 351 541 l 297 253 z "},"ÿ":{"ha":804,"x_min":11,"x_max":791,"o":"m 11 -319 l 292 176 l 14 704 l 241 704 l 401 359 l 562 704 l 791 704 l 244 -319 l 11 -319 m 180 831 q 166 845 180 831 q 153 901 153 859 q 180 971 153 944 q 250 999 208 999 q 320 971 293 999 q 347 901 347 944 q 320 831 347 859 q 250 804 293 804 q 180 831 208 804 m 447 831 q 433 845 447 831 q 419 901 419 859 q 447 971 419 944 q 517 999 474 999 q 586 971 559 999 q 614 901 614 944 q 586 831 614 859 q 517 804 559 804 q 447 831 474 804 z "},"Œ":{"ha":1594,"x_min":41,"x_max":1547,"o":"m 41 509 q 109 781 41 660 q 297 971 177 903 q 566 1039 417 1039 q 876 921 745 1039 l 876 1021 l 1536 1021 l 1536 828 l 1089 828 l 1089 607 l 1476 607 l 1476 428 l 1089 428 l 1089 193 l 1547 193 l 1547 0 l 876 0 l 876 98 q 566 -18 747 -18 q 297 50 417 -18 q 109 238 177 117 q 41 509 41 359 m 256 509 q 342 268 256 362 q 566 174 429 174 q 788 268 701 174 q 875 509 875 362 q 788 751 875 656 q 566 846 702 846 q 342 751 429 846 q 256 509 256 656 z "},"œ":{"ha":1301,"x_min":37,"x_max":1257,"o":"m 37 350 q 85 538 37 454 q 217 670 132 623 q 407 718 302 718 q 554 690 486 718 q 673 612 623 663 q 929 718 774 718 q 1073 690 1010 718 q 1176 612 1137 661 q 1236 498 1216 562 q 1257 361 1257 435 l 1257 296 l 781 296 q 825 191 784 227 q 942 154 866 154 q 1031 174 991 154 q 1096 227 1072 194 l 1236 113 q 1108 17 1180 48 q 937 -14 1036 -14 q 673 89 772 -14 q 407 -14 569 -14 q 142 89 247 -14 q 37 350 37 192 m 243 350 q 290 217 243 270 q 407 164 336 164 q 526 217 479 164 q 572 350 572 269 q 525 486 572 431 q 407 541 478 541 q 290 486 336 541 q 243 350 243 431 m 781 425 l 1055 425 q 1018 525 1053 487 q 922 564 983 564 q 822 525 861 564 q 781 425 784 487 z "},"Ÿ":{"ha":966,"x_min":5,"x_max":961,"o":"m 5 1021 l 252 1021 l 484 627 l 715 1021 l 961 1021 l 590 418 l 590 0 l 379 0 l 379 414 l 5 1021 m 253 1161 q 280 1231 253 1204 q 350 1258 307 1258 q 420 1231 393 1258 q 447 1161 447 1204 q 420 1092 447 1119 q 350 1064 393 1064 q 280 1092 307 1064 q 253 1161 253 1119 m 519 1161 q 547 1231 519 1204 q 616 1258 574 1258 q 686 1231 659 1258 q 714 1161 714 1204 q 686 1092 714 1120 q 616 1064 659 1064 q 547 1092 574 1064 q 519 1161 519 1119 z "},"ˆ":{"ha":511,"x_min":24,"x_max":488,"o":"m 24 798 l 256 1064 l 488 798 l 330 798 l 256 876 l 180 798 l 24 798 z "},"˜":{"ha":537,"x_min":24,"x_max":513,"o":"m 24 802 q 70 965 24 910 q 187 1019 117 1019 q 239 1009 216 1019 q 278 985 262 1000 q 306 957 293 971 q 333 933 319 943 q 361 924 347 924 q 403 1011 403 924 l 513 1011 q 466 849 513 906 q 349 793 419 793 q 297 803 319 793 q 260 827 274 812 q 235 855 247 841 q 210 879 224 869 q 180 889 197 889 q 144 867 155 889 q 134 802 134 846 l 24 802 z "}," ":{"ha":701,"x_min":0,"x_max":0,"o":""}," ":{"ha":1402,"x_min":0,"x_max":0,"o":""}," ":{"ha":701,"x_min":0,"x_max":0,"o":""}," ":{"ha":1402,"x_min":0,"x_max":0,"o":""}," ":{"ha":467,"x_min":0,"x_max":0,"o":""}," ":{"ha":351,"x_min":0,"x_max":0,"o":""}," ":{"ha":233,"x_min":0,"x_max":0,"o":""}," ":{"ha":233,"x_min":0,"x_max":0,"o":""}," ":{"ha":175,"x_min":0,"x_max":0,"o":""}," ":{"ha":280,"x_min":0,"x_max":0,"o":""}," ":{"ha":77,"x_min":0,"x_max":0,"o":""},"‐":{"ha":598,"x_min":52,"x_max":546,"o":"m 52 265 l 52 453 l 546 453 l 546 265 l 52 265 z "},"‑":{"ha":598,"x_min":52,"x_max":546,"o":"m 52 265 l 52 453 l 546 453 l 546 265 l 52 265 z "},"‒":{"ha":598,"x_min":52,"x_max":546,"o":"m 52 265 l 52 453 l 546 453 l 546 265 l 52 265 z "},"–":{"ha":764,"x_min":52,"x_max":711,"o":"m 52 265 l 52 453 l 711 453 l 711 265 l 52 265 z "},"—":{"ha":1103,"x_min":52,"x_max":1051,"o":"m 52 265 l 52 453 l 1051 453 l 1051 265 l 52 265 z "},"‘":{"ha":293,"x_min":52,"x_max":227,"o":"m 52 791 q 78 869 52 829 l 221 1116 l 227 1116 l 227 675 q 178 665 199 665 q 87 702 123 665 q 52 791 52 738 z "},"’":{"ha":293,"x_min":65,"x_max":240,"o":"m 65 606 l 65 1046 q 114 1054 91 1054 q 204 1018 169 1054 q 240 928 240 982 q 215 850 240 888 l 71 606 l 65 606 z "},"‚":{"ha":293,"x_min":65,"x_max":240,"o":"m 65 208 q 114 218 97 218 q 204 182 169 218 q 240 92 240 146 q 215 14 240 52 l 71 -231 l 65 -231 l 65 208 z "},"“":{"ha":570,"x_min":52,"x_max":504,"o":"m 52 791 q 78 869 52 829 l 221 1116 l 227 1116 l 227 675 q 178 665 199 665 q 87 702 123 665 q 52 791 52 738 m 329 791 q 355 869 329 829 l 498 1116 l 504 1116 l 504 675 q 456 665 477 665 q 365 702 401 665 q 329 791 329 738 z "},"”":{"ha":570,"x_min":65,"x_max":518,"o":"m 65 606 l 65 1046 q 114 1054 91 1054 q 204 1018 169 1054 q 240 928 240 982 q 215 850 240 888 l 71 606 l 65 606 m 343 606 l 343 1046 q 392 1054 369 1054 q 483 1018 447 1054 q 518 928 518 982 q 493 850 518 888 l 349 606 l 343 606 z "},"„":{"ha":597,"x_min":65,"x_max":545,"o":"m 65 208 q 114 218 97 218 q 204 182 169 218 q 240 92 240 146 q 215 14 240 52 l 71 -231 l 65 -231 l 65 208 m 370 208 q 418 218 401 218 q 509 182 473 218 q 545 92 545 146 q 519 14 545 52 l 375 -231 l 370 -231 l 370 208 z "},"•":{"ha":410,"x_min":41,"x_max":368,"o":"m 41 358 q 88 475 41 429 q 204 522 134 522 q 321 475 275 522 q 368 358 368 429 q 321 242 368 288 q 204 196 275 196 q 88 242 134 196 q 41 358 41 288 z "},"…":{"ha":1076,"x_min":50,"x_max":1026,"o":"m 50 113 q 86 202 50 167 q 176 237 121 237 q 267 202 231 237 q 302 113 302 168 q 267 22 302 58 q 176 -14 231 -14 q 85 22 121 -14 q 50 113 50 57 m 412 113 q 448 202 412 167 q 539 237 484 237 q 629 202 593 237 q 664 113 664 168 q 629 22 664 58 q 539 -14 593 -14 q 448 22 484 -14 q 412 113 412 57 m 775 113 q 811 202 775 167 q 901 237 846 237 q 991 202 956 237 q 1026 113 1026 168 q 991 22 1026 58 q 901 -14 956 -14 q 810 22 846 -14 q 775 113 775 57 z "}," ":{"ha":280,"x_min":0,"x_max":0,"o":""},"‹":{"ha":547,"x_min":21,"x_max":526,"o":"m 21 353 l 21 358 l 285 636 l 526 636 l 257 355 l 526 75 l 285 75 l 21 353 z "},"›":{"ha":547,"x_min":21,"x_max":526,"o":"m 21 75 l 290 355 l 21 636 l 262 636 l 526 358 l 526 353 l 262 75 l 21 75 z "}," ":{"ha":351,"x_min":0,"x_max":0,"o":""},"€":{"ha":923,"x_min":41,"x_max":899,"o":"m 41 325 l 41 456 l 134 456 q 132 511 132 474 q 134 572 132 551 l 41 572 l 41 703 l 155 703 q 310 950 198 861 q 579 1039 422 1039 q 896 900 774 1039 l 771 754 q 579 856 697 856 q 458 816 510 856 q 378 703 406 776 l 600 703 l 600 572 l 350 572 q 347 511 347 533 q 349 456 347 474 l 600 456 l 600 325 l 375 325 q 456 206 403 248 q 581 164 509 164 q 774 267 697 164 l 899 121 q 581 -18 777 -18 q 310 72 423 -18 q 154 325 197 163 l 41 325 z "},"™":{"ha":1232,"x_min":33,"x_max":1181,"o":"m 33 880 l 33 1021 l 517 1021 l 517 880 l 349 880 l 349 498 l 201 498 l 201 880 l 33 880 m 599 498 l 599 1031 l 602 1031 l 889 693 l 1178 1031 l 1181 1031 l 1181 498 l 1035 498 l 1035 672 l 892 492 l 886 492 l 745 672 l 745 498 l 599 498 z "},"◼":{"ha":701,"x_min":0,"x_max":701,"o":"m 0 0 l 0 701 l 701 701 l 701 0 l 0 0 z "},"ﬁ":{"ha":929,"x_min":22,"x_max":851,"o":"m 22 532 l 22 704 l 144 704 l 144 770 q 221 976 144 896 q 425 1055 298 1055 q 554 1031 507 1055 l 501 860 q 435 878 476 878 q 371 850 394 878 q 349 777 349 823 l 349 704 l 507 704 l 507 532 l 349 532 l 349 0 l 144 0 l 144 532 l 22 532 m 646 841 q 629 858 646 841 q 612 926 612 875 q 646 1012 612 978 q 732 1046 680 1046 q 818 1012 784 1046 q 851 926 851 978 q 818 841 851 875 q 732 807 784 807 q 646 841 680 807 m 629 0 l 629 704 l 833 704 l 833 0 l 629 0 z "}}}
